<?xml version="1.0" encoding="utf-8"?>
<!-- Generator: Adobe Illustrator 27.2.0, SVG Export Plug-In . SVG Version: 6.00 Build 0)  -->
<svg version="1.1" id="Layer_1" xmlns="http://www.w3.org/2000/svg" xmlns:xlink="http://www.w3.org/1999/xlink" x="0px" y="0px"
	 viewBox="0 0 143.6 242.3" style="enable-background:new 0 0 143.6 242.3;" xml:space="preserve">
<style type="text/css">
	.st0{fill:#31A582;}
	.st1{fill:#164234;}
</style>
<g>
	<path class="st0" d="M71.8,5C39.9,5,13.9,30.9,13.9,62.9s25.9,57.9,57.9,57.9s57.9-25.9,57.9-57.9C129.7,31,103.7,5,71.8,5z
		 M75,104.5c0,1,0.1,2,0.1,3c-1.1,0.1-2.1,0.1-3.3,0.1c-1.5,0-3-0.1-4.4-0.2V52.8h48c0.6,2.5,0.9,5,1.1,7.6
		C93.3,61.8,75,81,75,104.5z M115.3,73.2c-3.4,14.5-14,26.4-27.8,31.5c0-0.1,0-0.2,0-0.3C87.5,88.4,99.7,75.1,115.3,73.2z
		 M33.3,40.3c7.7-13.2,22.1-22,38.5-22s30.8,8.9,38.5,22H33.3z M54.8,52.8v51.4c-16.2-6.7-27.7-22.7-27.7-41.4
		c0-3.5,0.4-6.9,1.1-10.1H54.8z"/>
	<g>
		<path class="st1" d="M27.7,139.6c0,3.3,1.4,5.3,4.4,5.3c3,0,5-1.6,5-5.5v-9.1c0-1.5-0.4-1.7-2.6-1.9v-0.9h6.2v0.9
			c-1.9,0.2-2.2,0.4-2.2,1.9v9.6c0,4.7-3.2,6.8-7.2,6.8c-4.8,0-7.7-2.2-7.7-6.9v-9.6c0-1.5-0.3-1.7-2.2-1.9v-0.9h8.3v0.9
			c-1.9,0.2-2.2,0.4-2.2,1.9V139.6z"/>
		<path class="st1" d="M47.5,139.6c0,3.3,1.4,5.3,4.4,5.3c3,0,5-1.6,5-5.5v-9.1c0-1.5-0.4-1.7-2.6-1.9v-0.9h6.2v0.9
			c-1.9,0.2-2.2,0.4-2.2,1.9v9.6c0,4.7-3.2,6.8-7.2,6.8c-4.8,0-7.7-2.2-7.7-6.9v-9.6c0-1.5-0.3-1.7-2.2-1.9v-0.9h8.3v0.9
			c-1.9,0.2-2.2,0.4-2.2,1.9V139.6z"/>
		<path class="st1" d="M67.8,143.7c0,1.5,0.3,1.7,2.2,1.9v0.9h-8.3v-0.9c1.9-0.2,2.2-0.4,2.2-1.9v-13.4c0-1.5-0.3-1.7-2.2-1.9v-0.9
			H70v0.9c-1.9,0.2-2.2,0.4-2.2,1.9V143.7z"/>
		<path class="st1" d="M71.5,146.5v-0.9c1.9-0.2,2.2-0.4,2.2-1.9v-13.4c0-1.5-0.3-1.7-2.2-1.9v-0.9h8.3c7.2,0,10.4,4.1,10.4,9.1
			c0,6.3-4.1,9.9-9.9,9.9H71.5z M77.6,128.6v14.9c0,1.6,0.7,1.9,2.1,1.9h0.5c3.4,0,5.8-3,5.8-8.2c0-4.9-2.1-8.6-6.9-8.6H77.6z"/>
		<path class="st1" d="M106.2,133c-1,0.3-1.1,0.5-1.4,1l-5.4,12.6h-1l-5.9-12.6c-0.3-0.6-0.4-0.8-1.4-1v-0.9h7.4v0.9
			c-1.4,0.2-1.8,0.3-1.8,0.9c0,0.2,0.1,0.4,0.2,0.8l3.3,7.5l3-7.5c0.1-0.4,0.2-0.5,0.2-0.7c0-0.6-0.4-0.7-1.8-0.9v-0.9h4.7V133z"/>
		<path class="st1" d="M110.2,131.2c-1.3,0-1.8,0.7-2.5,2.4h-0.9l1.2-6.2h11.9v0.9l-7.7,18.1h-2.9l8.2-15.3H110.2z"/>
	</g>
</g>
</svg>
