<?xml version="1.0" encoding="utf-8"?>
<!-- Generator: Adobe Illustrator 24.3.0, SVG Export Plug-In . SVG Version: 6.00 Build 0)  -->
<svg version="1.1" xmlns="http://www.w3.org/2000/svg" xmlns:xlink="http://www.w3.org/1999/xlink" x="0px" y="0px"
	 viewBox="0 0 76.6 76.6" style="enable-background:new 0 0 76.6 76.6;" xml:space="preserve">
<style type="text/css">
	.st0{display:none;}
	.st1{display:inline;}
	.st2{fill:#222221;}
	.st3{fill:#FFFFFF;}
	.st4{fill-rule:evenodd;clip-rule:evenodd;fill:#FFFFFF;}
	.st5{fill-rule:evenodd;clip-rule:evenodd;fill:#FFFFFF;stroke:#222221;stroke-miterlimit:10;}
	.st6{fill:none;stroke:#222221;stroke-width:1.5;stroke-miterlimit:10;}
	.st7{fill-rule:evenodd;clip-rule:evenodd;fill:#222221;}
	.st8{display:inline;fill:#222221;}
</style>
<g id="Capa_1" class="st0">
</g>
<g id="Layer_2" class="st0">
</g>
<g id="Layer_3">
	<g class="st0">
		<path class="st8" d="M38.7,21.1c-8.7,0-15.9,6.6-16.7,15c-0.1,0.5-0.1,1.1-0.1,1.6c0,3.6,1.2,7,3.2,9.8L23,53.7l6.4-2.1
			c2.7,1.7,5.8,2.8,9.2,2.8c9.2,0,16.8-7.5,16.8-16.6c0-0.4,0-0.9-0.1-1.3C54.7,27.9,47.5,21.1,38.7,21.1z M48.4,44.6
			c-0.4,1.1-2.4,2.2-3.3,2.3c-0.9,0.1-0.9,0.7-5.9-1.2c-5-2-8.1-7-8.3-7.3c-0.2-0.2-1.3-1.7-1.7-3.4c-0.1-0.5-0.3-1.1-0.3-1.7
			c0-2.4,1.3-3.6,1.7-4.1c0.4-0.5,1-0.6,1.3-0.6c0.3,0,0.7,0,0.9,0c0.3,0,0.7-0.2,1.1,0.8c0.4,1,1.4,3.4,1.5,3.6
			c0.1,0.2,0.2,0.5,0,0.8c-0.1,0.2-0.2,0.4-0.3,0.6c-0.1,0.1-0.1,0.1-0.2,0.2c-0.3,0.3-0.5,0.6-0.7,0.8c-0.2,0.2-0.5,0.5-0.2,1
			c0.3,0.5,1.3,2.1,2.7,3.4c1.9,1.7,3.4,2.2,3.9,2.4c0.5,0.2,0.8,0.2,1.1-0.1c0.3-0.3,1.2-1.4,1.5-1.9c0.3-0.5,0.7-0.4,1.1-0.2
			c0.4,0.2,2.8,1.3,3.3,1.6c0.5,0.2,0.8,0.4,0.9,0.6C48.9,42.5,48.9,43.5,48.4,44.6z"/>
		<path class="st8" d="M61.1,1.3H15.5C7.6,1.3,1.3,7.6,1.3,15.5v45.6c0,7.8,6.4,14.2,14.2,14.2h45.6c7.8,0,14.2-6.4,14.2-14.2V15.5
			C75.3,7.6,69,1.3,61.1,1.3z M38.7,57.6c-3.5,0-6.8-0.9-9.6-2.5l-11,3.5L21.6,48c-1.8-3-2.9-6.5-2.9-10.2c0-0.3,0-0.6,0-0.9
			C19.2,26.4,28,18,38.7,18c10.8,0,19.7,8.6,19.9,19.3c0,0.2,0,0.3,0,0.5C58.6,48.7,49.7,57.6,38.7,57.6z"/>
	</g>
	<g class="st0">
		<path class="st8" d="M33.7,38.6c0,3.9,1.3,5.8,4,5.8c2.7,0,4-1.9,4-5.7v-4.9c-0.9-0.8-2.2-1.2-3.8-1.2
			C35.1,32.5,33.7,34.6,33.7,38.6z"/>
		<path class="st8" d="M61.1,1.3H15.5C7.6,1.3,1.3,7.6,1.3,15.5v45.6c0,7.8,6.4,14.2,14.2,14.2h45.6c7.8,0,14.2-6.4,14.2-14.2V15.5
			C75.3,7.6,69,1.3,61.1,1.3z M55.5,44.5c-1.7,2.6-4,3.9-6.9,3.9c-1.4,0-2.7-0.4-3.7-1.1c-1-0.7-1.7-1.6-1.9-2.7
			c-1.3,2.5-3.5,3.8-6.4,3.8c-2.3,0-4.2-0.9-5.7-2.6c-1.5-1.7-2.3-3.9-2.3-6.5c0-3.5,1-6.2,3.1-8.2c1.7-1.6,3.7-2.4,5.9-2.4
			c1.7,0,3.2,0.5,4.5,1.4l0.6-1.5h3.8v11.8c0,2.7,0.8,4,2.5,4c2.7,0,4-2.7,4-8.2c0-5-1.8-8.8-5.3-11.4c-2.6-2-5.6-3-9-3
			c-4.7,0-8.4,1.6-11.3,4.8c-2.6,2.9-3.9,6.8-3.9,11.5c0,6,2,10.5,5.9,13.5c2.8,2.1,6.2,3.2,10.1,3.2c0.4,0,0.8,0,1.2-0.1l1.7-0.1
			l0.1,3.8l-1.5,0.1c-0.4,0-0.7,0-1,0c-6,0-11-1.9-15.1-5.6c-4-3.7-6-8.6-6-14.6c0-6.6,2.2-11.8,6.6-15.6c3.6-3.2,8-4.8,13.3-4.8
			c5.5,0,10,1.8,13.7,5.5c3.4,3.4,5.1,7.7,5.1,12.9C57.6,39.5,56.9,42.2,55.5,44.5z"/>
	</g>
	<path class="st2" d="M61.1,1.3H15.5C7.6,1.3,1.3,7.6,1.3,15.5v45.6c0,7.8,6.4,14.2,14.2,14.2h45.6c7.8,0,14.2-6.4,14.2-14.2V15.5
		C75.3,7.6,69,1.3,61.1,1.3z M29.2,56.9h-7.7V32.1h7.7V56.9z M25.3,28.9c-2.5,0-4.5-2-4.5-4.6c0-2.5,2-4.6,4.5-4.6
		c2.5,0,4.5,2,4.5,4.6C29.8,26.8,27.8,28.9,25.3,28.9z M57.9,56.9h-7.6c0,0,0-9.4,0-13c0-3.6-1.4-5.6-4.2-5.6
		c-3.1,0-4.7,2.1-4.7,5.6c0,3.8,0,13,0,13h-7.3V32.1h7.3v3.3c0,0,2.2-4.1,7.5-4.1c5.2,0,9,3.2,9,9.8C57.9,47.8,57.9,56.9,57.9,56.9z
		"/>
</g>
</svg>
