<?xml version="1.0" encoding="utf-8"?>
<!-- Generator: Adobe Illustrator 24.3.0, SVG Export Plug-In . SVG Version: 6.00 Build 0)  -->
<svg version="1.1" id="Layer_1" xmlns="http://www.w3.org/2000/svg" xmlns:xlink="http://www.w3.org/1999/xlink" x="0px" y="0px"
	 viewBox="0 0 244 39" style="enable-background:new 0 0 244 39;" xml:space="preserve">
<style type="text/css">
	.st0{fill:#FFB805;}
	.st1{fill:#9B679C;}
	.st2{fill:#F16850;}
	.st3{fill:#B17DB2;}
	.st4{fill:#8C588D;}
	.st5{fill:#754176;}
	.st6{fill:#CF9BD0;}
	.st7{fill:#CA96CB;}
	.st8{fill:#9E6A9F;}
	.st9{fill:#9A669B;}
	.st10{fill:#79457A;}
	.st11{fill:#723E73;}
	.st12{fill:#602C61;}
	.st13{fill:#663267;}
	.st14{fill:#643065;}
	.st15{fill:#855186;}
	.st16{fill:#986499;}
	.st17{fill:#B07CB1;}
	.st18{fill:#B985BA;}
</style>
<path class="st0" d="M242.4,13c-0.1,0-0.3,0-0.4-0.1c-0.4-0.1-0.7-0.3-0.9-0.7c-0.1-0.1-0.1-0.2-0.1-0.4c0-0.1-0.1-0.3-0.1-0.4
	c0-0.1,0-0.3,0.1-0.4c0.1-0.2,0.2-0.5,0.4-0.7c0.1-0.1,0.2-0.2,0.3-0.2c0.5-0.3,1-0.3,1.5,0c0.1,0.1,0.2,0.1,0.3,0.2
	c0.2,0.2,0.3,0.4,0.4,0.7c0,0.1,0.1,0.3,0.1,0.4c0,0.3-0.1,0.5-0.2,0.8c-0.1,0.1-0.1,0.2-0.2,0.3c-0.1,0.1-0.2,0.2-0.3,0.2
	c-0.1,0.1-0.2,0.1-0.4,0.1C242.7,13,242.6,13,242.4,13z M242.4,12.7c0.1,0,0.2,0,0.3,0s0.2-0.1,0.3-0.1c0.1-0.1,0.2-0.1,0.2-0.2
	c0.1-0.2,0.3-0.3,0.3-0.5c0.1-0.3,0.1-0.5-0.1-0.8c-0.2-0.5-0.6-0.8-1.1-0.7c-0.2,0-0.3,0-0.5,0.1c-0.1,0.1-0.3,0.2-0.4,0.3
	c-0.1,0.1-0.2,0.2-0.3,0.4s-0.1,0.3-0.1,0.5c0,0.1,0,0.2,0,0.3s0.1,0.2,0.1,0.3c0.1,0.1,0.1,0.2,0.2,0.3c0.1,0.1,0.2,0.1,0.2,0.2
	c0.1,0.1,0.2,0.1,0.3,0.1C242.2,12.7,242.3,12.7,242.4,12.7L242.4,12.7z M241.9,12.2v-1.6h0.5c0.1,0,0.2,0,0.3,0s0.1,0,0.2,0.1
	c0.1,0,0.1,0.1,0.1,0.1c0,0.1,0,0.1,0,0.2c0,0.1,0,0.2-0.1,0.3s-0.1,0.1-0.2,0.2l0.4,0.6h-0.4l-0.4-0.6h-0.2v0.6L241.9,12.2z
	 M242.2,11.4h0.2h0.1h0.1c0,0,0,0,0-0.1v-0.1v-0.1c0,0,0,0,0-0.1h-0.1h-0.1h-0.2V11.4z"/>
<polygon class="st1" points="71.4,6 67.7,6 63.1,26 58.4,6.2 58.4,6 54.3,6 49.6,25.9 45.1,6 41.3,6 47.3,31.8 47.4,31.9 51.7,31.9 
	56.3,12.3 60.8,31.8 60.9,31.9 65.2,31.9 71.4,6.3 "/>
<path class="st1" d="M79.7,11.6c-2.4-0.1-4.8,0.8-6.4,2.6C71.8,16,71,18.6,71,22.1c0,3.4,0.7,6,2.2,7.8c1.6,1.8,4,2.8,6.4,2.6
	c2.4,0.2,4.8-0.8,6.4-2.7c1.5-1.8,2.2-4.4,2.2-7.7c0-3.4-0.7-6.1-2.2-7.8C84.5,12.5,82.1,11.5,79.7,11.6z M83.4,27.6
	c-1.8,2.1-4.9,2.3-7,0.5c-0.2-0.2-0.4-0.3-0.5-0.5c-0.9-1.7-1.3-3.6-1.2-5.5c0-2.6,0.4-4.4,1.2-5.6c0.9-1.2,2.3-1.8,3.7-1.7
	c1.4-0.1,2.8,0.5,3.7,1.7c0.8,1.1,1.2,3,1.2,5.6C84.6,24.6,84.2,26.4,83.4,27.6z"/>
<rect x="91.9" y="4.1" class="st1" width="3.6" height="27.8"/>
<path class="st1" d="M110.8,4.3c-1.2-0.5-2.5-0.8-3.8-0.7c-2.2,0-3.8,0.6-4.8,1.7c-1,1.6-1.5,3.4-1.4,5.3v1.7H98v3.1h2.8v16.7h3.6
	V15.3h4.3v-3.1h-4.3v-1.7c-0.1-1.1,0.1-2.1,0.6-3.1c0.5-0.6,1.3-0.8,2-0.7c0.5,0,0.9,0.1,1.4,0.2c0.4,0.1,0.9,0.3,1.3,0.5l0.2,0.1
	L110.8,4.3L110.8,4.3z"/>
<path class="st1" d="M120.5,11.9c-1.2,0-2.4,0.4-3.3,1.1c-0.9,0.6-1.7,1.3-2.4,2v-2.8h-3.6v19.7h3.6V18.5c0.8-0.9,1.8-1.7,2.9-2.3
	c0.8-0.4,1.7-0.6,2.6-0.6c0.5,0,0.9,0,1.4,0.2l0.2,0.1l0.8-3.5l-0.1-0.1C121.9,12,121.2,11.9,120.5,11.9z"/>
<path class="st1" d="M137.2,13.2c-1.2-1-3.3-1.6-6-1.6c-1.6,0-3.1,0.3-4.6,0.9c-1.2,0.5-2.1,1.4-2.8,2.5l-0.1,0.2l2.9,1.8l0.1-0.2
	c0.4-0.6,0.9-1.1,1.4-1.4c0.9-0.5,1.9-0.7,2.9-0.6c1.1-0.1,2.3,0.2,3.3,0.8c0.8,0.7,1.3,1.8,1.1,2.9v0.7l-4.5,0.4
	c-1.5,0.1-3,0.5-4.3,1.1c-1,0.5-1.8,1.2-2.3,2.2c-0.6,1-0.8,2.2-0.8,3.4c-0.1,1.6,0.5,3.2,1.5,4.5c1.1,1.2,2.7,1.9,4.4,1.8
	c1.2,0,2.4-0.3,3.4-0.9c0.9-0.5,1.8-1.2,2.6-1.9V32h3.6V18.6C139,16.1,138.4,14.3,137.2,13.2z M130.4,29.3c-0.9,0.1-1.7-0.2-2.4-0.7
	c-0.6-0.6-0.9-1.5-0.8-2.3c-0.1-1,0.4-2,1.2-2.6c1.3-0.8,2.8-1.2,4.3-1.2l2.8-0.3v4.4c-0.4,0.3-0.8,0.6-1.2,0.9s-0.8,0.6-1.3,0.9
	c-0.4,0.3-0.9,0.5-1.3,0.6C131.3,29.2,130.8,29.2,130.4,29.3L130.4,29.3z"/>
<path class="st1" d="M168,14.7c-0.3-0.9-0.9-1.7-1.6-2.3c-0.9-0.6-1.9-0.8-2.9-0.8c-1.3,0-2.5,0.4-3.6,1.1c-1,0.7-1.9,1.5-2.8,2.4
	c-0.2-1-0.7-1.9-1.5-2.6c-0.9-0.7-2.1-1-3.2-0.9c-1.2,0-2.4,0.4-3.4,1.1c-0.9,0.6-1.7,1.3-2.4,2v-2.5H143v19.7h3.6V18.2
	c0.8-0.9,1.8-1.6,2.8-2.3c0.7-0.5,1.5-0.7,2.3-0.8c0.5,0,1.1,0.1,1.5,0.4c0.4,0.3,0.6,0.8,0.7,1.2c0.2,1.2,0.3,2.4,0.2,3.6v11.6h3.6
	V18.2c0.9-0.9,1.9-1.7,3-2.4c0.6-0.4,1.3-0.6,2-0.7c0.5,0,1.1,0.1,1.5,0.3c0.4,0.3,0.6,0.7,0.7,1.1c0.2,1.2,0.3,2.5,0.2,3.7v11.6
	h3.6v-13C168.5,17.4,168.4,16,168,14.7z"/>
<polygon class="st2" points="37,24.9 29.1,26.5 29.9,34.4 22.5,31.2 18.5,38 14.4,31.2 7,34.4 7.8,26.5 0,24.9 5.3,19 0,13.1 
	7.8,11.5 7,3.6 14.4,6.8 18.5,0 22.5,6.8 29.9,3.6 29.1,11.5 37,13.1 31.6,19 "/>
<polygon class="st3" points="18.5,11.9 14.4,6.8 7,3.6 11.4,9.4 "/>
<polygon class="st4" points="7.8,11.5 0,13.1 5.3,19 11.6,16.7 "/>
<polygon class="st5" points="11.4,9.4 7,3.6 7.8,11.5 11.6,16.7 "/>
<polygon class="st6" points="22.5,6.8 18.5,0 14.4,6.8 18.5,11.9 "/>
<polygon class="st7" points="31.6,19 37,13.1 29.1,11.5 25.3,16.7 "/>
<polygon class="st3" points="25.3,16.7 29.1,11.5 29.9,3.6 25.5,9.4 "/>
<polygon class="st8" points="25.5,9.4 29.9,3.6 22.5,6.8 18.5,11.9 "/>
<polygon class="st9" points="29.9,22.5 37,24.9 31.6,19 25.3,16.7 "/>
<polygon class="st10" points="11.6,16.7 5.3,19 0,24.9 7.1,22.5 "/>
<polygon class="st11" points="18.5,30.6 18.5,38 22.5,31.2 22.7,24.6 "/>
<polygon class="st12" points="29.9,22.5 22.7,24.6 29.1,26.5 37,24.9 "/>
<polygon class="st10" points="22.5,31.2 29.9,34.4 29.1,26.5 22.7,24.6 "/>
<polygon class="st13" points="7.1,22.5 0,24.9 7.8,26.5 14.2,24.6 "/>
<polygon class="st14" points="14.2,24.6 14.4,31.2 18.5,38 18.5,30.6 "/>
<polygon class="st11" points="7.8,26.5 7,34.4 14.4,31.2 14.2,24.6 "/>
<polygon class="st15" points="25.3,16.7 25.5,9.4 18.5,11.9 18.5,19 "/>
<polygon class="st16" points="18.5,11.9 11.4,9.4 11.6,16.7 18.5,19 "/>
<polygon class="st6" points="14.2,24.6 18.5,30.6 22.7,24.6 18.5,19 "/>
<polygon class="st17" points="18.5,19 22.7,24.6 29.9,22.5 25.3,16.7 "/>
<polygon class="st18" points="11.6,16.7 7.1,22.5 14.2,24.6 18.5,19 "/>
<g>
	<path class="st0" d="M175.6,6.6c1.4-0.3,3.7-0.5,6-0.5c3.3,0,5.4,0.6,7,1.9c1.3,1,2.1,2.5,2.1,4.5c0,2.5-1.6,4.6-4.3,5.6v0.1
		c2.4,0.6,5.3,2.6,5.3,6.4c0,2.2-0.9,3.9-2.2,5.1c-1.8,1.6-4.7,2.4-8.8,2.4c-2.3,0-4-0.2-5.1-0.3V6.6z M178.9,17.1h3
		c3.5,0,5.5-1.8,5.5-4.3c0-3-2.3-4.2-5.6-4.2c-1.5,0-2.4,0.1-2.9,0.2V17.1z M178.9,29.3c0.6,0.1,1.6,0.2,2.8,0.2
		c3.4,0,6.6-1.3,6.6-5c0-3.5-3-4.9-6.6-4.9H179v9.7H178.9z"/>
	<path class="st0" d="M198.1,23.2c0.1,4.5,3,6.4,6.3,6.4c2.4,0,3.8-0.4,5.1-0.9l0.6,2.4c-1.2,0.5-3.2,1.1-6.1,1.1
		c-5.7,0-9-3.7-9-9.3c0-5.5,3.3-9.9,8.6-9.9c6,0,7.6,5.3,7.6,8.7c0,0.7-0.1,1.2-0.1,1.6h-13V23.2z M207.9,20.9
		c0-2.1-0.9-5.4-4.6-5.4c-3.4,0-4.9,3.1-5.1,5.4H207.9z"/>
	<path class="st0" d="M219.3,8.2v5.3h4.8V16h-4.8v9.9c0,2.3,0.6,3.6,2.5,3.6c0.9,0,1.5-0.1,1.9-0.2l0.2,2.5c-0.6,0.3-1.7,0.5-3,0.5
		c-1.6,0-2.8-0.5-3.6-1.4c-0.9-1-1.3-2.6-1.3-4.8V16h-2.8v-2.5h2.8V9L219.3,8.2z"/>
	<path class="st0" d="M238,31.8l-0.3-2.3h-0.1c-1,1.4-3,2.7-5.6,2.7c-3.7,0-5.6-2.6-5.6-5.3c0-4.4,3.9-6.9,11.1-6.8v-0.4
		c0-1.5-0.4-4.3-4.2-4.3c-1.7,0-3.5,0.5-4.8,1.4l-0.8-2.2c1.5-1,3.7-1.6,6-1.6c5.6,0,7,3.8,7,7.5v6.9c0,1.6,0.1,3.2,0.3,4.4
		C241,31.8,238,31.8,238,31.8z M237.5,22.4c-3.6-0.1-7.8,0.6-7.8,4.1c0,2.2,1.4,3.2,3.2,3.2c2.4,0,3.9-1.5,4.4-3.1
		c0.1-0.3,0.2-0.7,0.2-1.1L237.5,22.4L237.5,22.4z"/>
</g>
</svg>
