<?xml version="1.0" encoding="utf-8"?>
<!-- Generator: Adobe Illustrator 24.3.0, SVG Export Plug-In . SVG Version: 6.00 Build 0)  -->
<svg version="1.1" xmlns="http://www.w3.org/2000/svg" xmlns:xlink="http://www.w3.org/1999/xlink" x="0px" y="0px"
	 viewBox="0 0 76.6 76.6" style="enable-background:new 0 0 76.6 76.6;" xml:space="preserve">
<style type="text/css">
	.st0{display:none;}
	.st1{display:inline;}
	.st2{fill:#222221;}
	.st3{fill:#FFFFFF;}
	.st4{fill-rule:evenodd;clip-rule:evenodd;fill:#FFFFFF;}
	.st5{fill-rule:evenodd;clip-rule:evenodd;fill:#FFFFFF;stroke:#222221;stroke-miterlimit:10;}
	.st6{fill:none;stroke:#222221;stroke-width:1.5;stroke-miterlimit:10;}
	.st7{fill-rule:evenodd;clip-rule:evenodd;fill:#222221;}
	.st8{display:inline;fill:#222221;}
	.st9{display:none;fill:#222221;}
</style>
<g id="Capa_1" class="st0">
	<g id="XMLID_1977_" class="st1">
		<path id="XMLID_1986_" class="st2" d="M201,613.5L201,613.5c-10.5,0-19-8.5-19-19v0c0-10.5,8.5-19,19-19l0,0c10.5,0,19,8.5,19,19
			v0C220,605,211.5,613.5,201,613.5z"/>
		<path id="XMLID_1978_" class="st3" d="M190.4,594.5c0,5.9,4.7,10.6,10.6,10.6c0.7,0,1.3-0.1,2-0.2c0.9,0.6,2,0.9,3.2,0.9
			c3.4,0,6.2-2.8,6.2-6.2c0-1.2-0.3-2.3-0.9-3.3c0.1-0.6,0.2-1.2,0.2-1.8c0-5.9-4.7-10.6-10.6-10.6c-0.7,0-1.3,0.1-2,0.2
			c-0.9-0.6-2-0.9-3.2-0.9c-3.4,0-6.2,2.8-6.2,6.2c0,1.2,0.3,2.3,0.9,3.2C190.5,593.2,190.4,593.9,190.4,594.5z M201.1,587
			c3.4,0.2,5.4,1.7,5.6,3.1c0.1,0.9-0.5,1.6-1.6,1.6c-1.5,0-1.7-2.1-4.4-2.1c-1.2,0-2.2,0.5-2.2,1.6c0,2.3,8.5,0.9,8.5,5.9
			c0,2.9-2.3,4.8-5.7,4.8c-3,0-6.1-1.4-6-3.7c0-0.7,0.5-1.4,1.2-1.4c1.8,0,1.8,2.6,4.6,2.6c2,0,2.7-1.1,2.7-1.8
			c0-2.7-8.6-1.1-8.6-6.2C195.3,588.7,197.5,586.8,201.1,587z"/>
	</g>
	<g id="XMLID_1967_" class="st1">
		<path id="XMLID_1974_" class="st2" d="M201,667.5L201,667.5c-10.5,0-19-8.5-19-19v0c0-10.5,8.5-19,19-19l0,0c10.5,0,19,8.5,19,19
			v0C220,658.9,211.5,667.5,201,667.5z"/>
		<g id="XMLID_1968_" transform="translate(-1)">
			<path id="XMLID_1973_" class="st3" d="M190.3,642.3l5.8,3.7l5.8-3.7l-5.8-3.7L190.3,642.3z"/>
			<path id="XMLID_1972_" class="st3" d="M202,642.3l5.8,3.7l5.8-3.7l-5.8-3.7L202,642.3z"/>
			<path id="XMLID_1971_" class="st3" d="M190.3,649.7l5.8,3.7l5.8-3.7l-5.8-3.7L190.3,649.7z"/>
			<path id="XMLID_1970_" class="st3" d="M207.9,645.9l-5.8,3.7l5.8,3.7l5.8-3.7L207.9,645.9z"/>
			<path id="XMLID_1969_" class="st3" d="M196.2,654.6l5.8,3.7l5.8-3.7l-5.8-3.7L196.2,654.6z"/>
		</g>
	</g>
	<g id="XMLID_1859_" class="st1">
		<path id="XMLID_1964_" class="st2" d="M145.3,613.5L145.3,613.5c-10.5,0-19-8.5-19-19v0c0-10.5,8.5-19,19-19h0
			c10.5,0,19,8.5,19,19v0C164.3,605,155.8,613.5,145.3,613.5z"/>
		<g id="XMLID_1863_">
			<path id="XMLID_1872_" class="st4" d="M155.7,594c-0.1-5.5-4.7-9.9-10.2-9.9c-5.5,0-10,4.3-10.2,9.7c0,0.1,0,0.3,0,0.4
				c0,1.9,0.5,3.7,1.5,5.3l-1.8,5.5l5.7-1.8c1.5,0.8,3.2,1.3,5,1.3c5.7,0,10.2-4.6,10.2-10.2C155.7,594.2,155.7,594.1,155.7,594z
				 M145.5,602.8c-1.8,0-3.4-0.5-4.7-1.4l-3.3,1.1l1.1-3.2c-1-1.4-1.6-3.1-1.6-5c0-0.3,0-0.6,0-0.8c0.4-4.3,4.1-7.7,8.6-7.7
				c4.5,0,8.2,3.5,8.6,7.9c0,0.2,0,0.4,0,0.7C154.1,599,150.2,602.8,145.5,602.8z"/>
			<path id="XMLID_1864_" class="st4" d="M150.2,596.3c-0.3-0.1-1.5-0.7-1.7-0.8c-0.2-0.1-0.4-0.1-0.6,0.1c-0.2,0.2-0.7,0.8-0.8,1
				c-0.1,0.2-0.3,0.2-0.5,0.1c-0.2-0.1-1.1-0.4-2-1.2c-0.7-0.7-1.3-1.5-1.4-1.7c-0.1-0.2,0-0.4,0.1-0.5c0.1-0.1,0.2-0.3,0.4-0.4
				c0,0,0.1-0.1,0.1-0.1c0.1-0.1,0.1-0.2,0.2-0.3c0.1-0.2,0-0.3,0-0.4c-0.1-0.1-0.6-1.4-0.8-1.9c-0.2-0.5-0.4-0.4-0.6-0.4
				c-0.1,0-0.3,0-0.5,0c-0.2,0-0.4,0.1-0.7,0.3c-0.2,0.2-0.9,0.9-0.9,2.1c0,0.3,0.1,0.6,0.1,0.8c0.3,0.9,0.8,1.6,0.9,1.7
				c0.1,0.2,1.7,2.8,4.3,3.8c2.6,1,2.6,0.7,3,0.6c0.5,0,1.5-0.6,1.7-1.2c0.2-0.6,0.2-1.1,0.1-1.2
				C150.6,596.5,150.4,596.4,150.2,596.3z"/>
		</g>
	</g>
	<g id="XMLID_74_" class="st1">
		<path id="XMLID_81_" class="st2" d="M261.8,232.4L261.8,232.4c-10.5,0-19-8.5-19-19v0c0-10.5,8.5-19,19-19h0c10.5,0,19,8.5,19,19
			v0C280.8,223.9,272.3,232.4,261.8,232.4z"/>
		<text transform="matrix(1 0 0 1 252.1408 220.2157)" class="st3" style="font-family:'Tajawal-Medium'; font-size:26.0905px;">@</text>
	</g>
	<g id="XMLID_1728_" class="st1">
		<path id="XMLID_1858_" class="st2" d="M145.3,667.5L145.3,667.5c-10.5,0-19-8.5-19-19v0c0-10.5,8.5-19,19-19h0
			c10.5,0,19,8.5,19,19v0C164.3,658.9,155.8,667.5,145.3,667.5z"/>
		<g id="XMLID_1729_">
			<path id="XMLID_1846_" class="st3" d="M159.9,641.1c-0.4-1.3-1.4-2.4-2.7-2.7c-2.4-0.6-11.9-0.6-11.9-0.6s-9.5,0-11.9,0.6
				c-1.3,0.4-2.3,1.4-2.7,2.7c-0.6,2.4-0.6,7.4-0.6,7.4s0,5,0.6,7.4c0.4,1.3,1.4,2.4,2.7,2.7c2.4,0.6,11.9,0.6,11.9,0.6
				s9.5,0,11.9-0.6c1.3-0.4,2.3-1.4,2.7-2.7c0.6-2.4,0.6-7.4,0.6-7.4S160.5,643.4,159.9,641.1z"/>
			<polygon id="XMLID_1730_" class="st2" points="142.2,653 142.2,643.9 150.1,648.4 			"/>
		</g>
	</g>
	<g id="XMLID_1723_" class="st1">
		<path id="XMLID_1725_" class="st2" d="M89.9,505.7L89.9,505.7c-10.5,0-19-8.5-19-19v0c0-10.5,8.5-19,19-19l0,0
			c10.5,0,19,8.5,19,19v0C108.9,497.2,100.4,505.7,89.9,505.7z"/>
		<path id="XMLID_1724_" class="st3" d="M79.7,493c1.8,1.2,4,1.9,6.4,1.9c7.7,0,12.1-6.5,11.8-12.4c0.8-0.6,1.5-1.3,2.1-2.2
			c-0.7,0.3-1.5,0.6-2.4,0.7c0.9-0.5,1.5-1.3,1.8-2.3c-0.8,0.5-1.7,0.8-2.6,1c-0.8-0.8-1.8-1.3-3-1.3c-2.7,0-4.7,2.5-4.1,5.1
			c-3.5-0.2-6.5-1.8-8.6-4.3c-1.1,1.9-0.6,4.3,1.3,5.6c-0.7,0-1.3-0.2-1.9-0.5c0,1.9,1.3,3.7,3.3,4.1c-0.6,0.2-1.2,0.2-1.9,0.1
			c0.5,1.7,2.1,2.9,3.9,2.9C84.2,492.7,81.9,493.3,79.7,493z"/>
	</g>
	<g id="XMLID_1716_" class="st1">
		<path id="XMLID_1720_" class="st2" d="M145.6,505.7L145.6,505.7c-10.5,0-19-8.5-19-19v0c0-10.5,8.5-19,19-19l0,0
			c10.5,0,19,8.5,19,19v0C164.6,497.2,156.1,505.7,145.6,505.7z"/>
		<g id="XMLID_1717_">
			<path id="XMLID_1719_" class="st3" d="M148,486.2h-7.7l0,2.2h5.2c-0.6,2.7-2.5,4.3-5,4.3c-3.3,0-6-2.7-6-6c0-3.3,2.7-6,6-6
				c1.6,0,3,0.6,4.1,1.6l1.7-1.5c-1.5-1.5-3.5-2.4-5.8-2.4c-4.6,0-8.3,3.7-8.3,8.3c0,4.6,3.7,8.3,8.3,8.3c4.4,0,7.6-3.3,7.6-7.9
				L148,486.2z"/>
			<polygon id="XMLID_1718_" class="st3" points="159,486.3 155.9,486.3 155.9,483.1 153.8,483.1 153.8,486.3 150.7,486.3 
				150.7,488.3 153.8,488.3 153.8,491.5 155.9,491.5 155.9,488.3 159,488.3 			"/>
		</g>
	</g>
	<g id="XMLID_1698_" class="st1">
		<path id="XMLID_1704_" class="st2" d="M89.9,559.6L89.9,559.6c-10.5,0-19-8.5-19-19v0c0-10.5,8.5-19,19-19l0,0
			c10.5,0,19,8.5,19,19v0C108.9,551.1,100.4,559.6,89.9,559.6z"/>
		<path id="XMLID_1699_" class="st3" d="M89.9,529.5c-6.1,0-11.1,5-11.1,11.1c0,6.1,5,11.1,11.1,11.1c6.1,0,11.1-5,11.1-11.1
			C101,534.4,96,529.5,89.9,529.5z M95,545.5c-0.2,0.3-0.6,0.4-0.9,0.2c-2.6-1.6-5.9-1.9-9.8-1.1c-0.4,0.1-0.7-0.2-0.8-0.5
			c-0.1-0.4,0.2-0.7,0.5-0.8c4.2-0.9,7.9-0.6,10.8,1.2C95.1,544.8,95.2,545.2,95,545.5z M96.3,542.5c-0.3,0.4-0.8,0.6-1.2,0.3
			c-3-1.8-7.6-2.4-11.1-1.3c-0.4,0.1-0.9-0.1-1.1-0.6c-0.1-0.4,0.1-0.9,0.6-1.1c4.1-1.2,9.1-0.6,12.5,1.5
			C96.4,541.5,96.6,542.1,96.3,542.5z M96.4,539.4c-3.6-2.1-9.5-2.3-12.9-1.3c-0.6,0.2-1.1-0.2-1.3-0.7c-0.2-0.6,0.2-1.1,0.7-1.3
			c3.9-1.2,10.5-0.9,14.6,1.5c0.5,0.3,0.7,0.9,0.4,1.4C97.6,539.5,96.9,539.6,96.4,539.4z"/>
	</g>
	<g id="XMLID_1693_" class="st1">
		<path id="XMLID_1695_" class="st2" d="M200.7,505.7L200.7,505.7c-10.5,0-19-8.5-19-19v0c0-10.5,8.5-19,19-19h0
			c10.5,0,19,8.5,19,19v0C219.8,497.2,211.2,505.7,200.7,505.7z"/>
		<path id="XMLID_1694_" class="st3" d="M197.8,498.2h4.6v-11.6h3.2l0.3-3.9h-3.6c0,0,0-1.5,0-2.2c0-0.9,0.2-1.3,1.1-1.3
			c0.7,0,2.5,0,2.5,0v-4c0,0-2.6,0-3.2,0c-3.4,0-5,1.5-5,4.4c0,2.5,0,3.1,0,3.1h-2.4v3.9h2.4V498.2z"/>
	</g>
	<g id="XMLID_1683_" class="st1">
		<path id="XMLID_1692_" class="st2" d="M256.5,505.7L256.5,505.7c-10.5,0-19-8.5-19-19v0c0-10.5,8.5-19,19-19l0,0
			c10.5,0,19,8.5,19,19v0C275.5,497.2,267,505.7,256.5,505.7z"/>
		<g id="XMLID_1684_">
			<path id="XMLID_1689_" class="st3" d="M256.5,478.1c2.8,0,3.1,0,4.2,0.1c1,0,1.6,0.2,1.9,0.4c0.5,0.2,0.8,0.4,1.2,0.8
				c0.4,0.4,0.6,0.7,0.8,1.2c0.1,0.4,0.3,0.9,0.4,1.9c0.1,1.1,0.1,1.4,0.1,4.2c0,2.8,0,3.1-0.1,4.2c0,1-0.2,1.6-0.4,1.9
				c-0.2,0.5-0.4,0.8-0.8,1.2c-0.4,0.4-0.7,0.6-1.2,0.8c-0.4,0.1-0.9,0.3-1.9,0.4c-1.1,0-1.4,0.1-4.2,0.1c-2.8,0-3.1,0-4.2-0.1
				c-1,0-1.6-0.2-1.9-0.4c-0.5-0.2-0.8-0.4-1.2-0.8c-0.4-0.4-0.6-0.7-0.8-1.2c-0.1-0.4-0.3-0.9-0.4-1.9c-0.1-1.1-0.1-1.4-0.1-4.2
				c0-2.8,0-3.1,0.1-4.2c0-1,0.2-1.6,0.4-1.9c0.2-0.5,0.4-0.8,0.8-1.2c0.4-0.4,0.7-0.6,1.2-0.8c0.4-0.1,0.9-0.3,1.9-0.4
				C253.3,478.1,253.7,478.1,256.5,478.1 M256.5,476.2c-2.8,0-3.2,0-4.3,0.1c-1.1,0.1-1.9,0.2-2.5,0.5c-0.7,0.3-1.3,0.6-1.8,1.2
				c-0.6,0.6-0.9,1.2-1.2,1.8c-0.3,0.7-0.4,1.4-0.5,2.5c-0.1,1.1-0.1,1.5-0.1,4.3c0,2.8,0,3.2,0.1,4.3c0.1,1.1,0.2,1.9,0.5,2.5
				c0.3,0.7,0.6,1.3,1.2,1.8c0.6,0.6,1.2,0.9,1.8,1.2c0.7,0.3,1.4,0.4,2.5,0.5c1.1,0.1,1.5,0.1,4.3,0.1c2.8,0,3.2,0,4.3-0.1
				c1.1-0.1,1.9-0.2,2.5-0.5c0.7-0.3,1.3-0.6,1.8-1.2c0.6-0.6,0.9-1.2,1.2-1.8c0.3-0.7,0.4-1.4,0.5-2.5c0.1-1.1,0.1-1.5,0.1-4.3
				c0-2.8,0-3.2-0.1-4.3c-0.1-1.1-0.2-1.9-0.5-2.5c-0.3-0.7-0.6-1.3-1.2-1.8c-0.6-0.6-1.2-0.9-1.8-1.2c-0.7-0.3-1.4-0.4-2.5-0.5
				C259.6,476.2,259.3,476.2,256.5,476.2"/>
			<path id="XMLID_1686_" class="st3" d="M256.5,481.3c-3,0-5.4,2.4-5.4,5.4c0,3,2.4,5.4,5.4,5.4c3,0,5.4-2.4,5.4-5.4
				C261.8,483.7,259.4,481.3,256.5,481.3 M256.5,490.1c-1.9,0-3.5-1.6-3.5-3.5c0-1.9,1.6-3.5,3.5-3.5s3.5,1.6,3.5,3.5
				C259.9,488.6,258.4,490.1,256.5,490.1"/>
			<path id="XMLID_1685_" class="st3" d="M263.3,481.1c0,0.7-0.6,1.3-1.3,1.3c-0.7,0-1.3-0.6-1.3-1.3c0-0.7,0.6-1.3,1.3-1.3
				C262.7,479.8,263.3,480.4,263.3,481.1"/>
		</g>
	</g>
	<g id="XMLID_1678_" class="st1">
		<path id="XMLID_1680_" class="st2" d="M256.5,559.6L256.5,559.6c-10.5,0-19-8.5-19-19v0c0-10.5,8.5-19,19-19l0,0
			c10.5,0,19,8.5,19,19v0C275.5,551.1,267,559.6,256.5,559.6z"/>
		<path id="XMLID_1679_" class="st3" d="M250.4,542.4c0.3,0.1,0.6,0,0.7-0.3c0.1-0.2,0.2-0.8,0.3-1c0.1-0.3,0.1-0.4-0.2-0.7
			c-0.5-0.6-0.9-1.4-0.9-2.5c0-3.3,2.5-6.2,6.4-6.2c3.5,0,5.4,2.1,5.4,5c0,3.7-1.7,6.9-4.1,6.9c-1.4,0-2.4-1.1-2-2.5
			c0.4-1.6,1.1-3.4,1.1-4.6c0-1.1-0.6-1.9-1.8-1.9c-1.4,0-2.5,1.4-2.5,3.4c0,1.2,0.4,2.1,0.4,2.1s-1.4,6-1.7,7.1
			c-0.5,2.1-0.1,4.7,0,4.9c0,0.2,0.2,0.2,0.3,0.1c0.1-0.2,1.8-2.2,2.3-4.2c0.2-0.6,0.9-3.6,0.9-3.6c0.5,0.9,1.8,1.6,3.2,1.6
			c4.2,0,7-3.8,7-8.9c0-3.9-3.3-7.4-8.2-7.4c-6.2,0-9.3,4.4-9.3,8.1C247.7,539.6,248.6,541.6,250.4,542.4z"/>
	</g>
	<g id="XMLID_752_" class="st1">
		<path id="XMLID_1675_" class="st2" d="M200.7,559.6L200.7,559.6c-10.5,0-19-8.5-19-19v0c0-10.5,8.5-19,19-19h0
			c10.5,0,19,8.5,19,19v0C219.8,551.1,211.2,559.6,200.7,559.6z"/>
		<g id="XMLID_753_">
			<path id="XMLID_761_" class="st3" d="M197.9,546.9c0.6-0.1,1.1-0.3,1.5-0.7c0.4-0.3,0.7-0.6,0.9-1c0.4-0.6,0.6-1.3,0.6-2.1
				c0-0.8-0.2-1.4-0.5-2c-0.3-0.5-0.9-0.9-1.5-1.2c0.4-0.2,0.8-0.5,1-0.8c0.4-0.5,0.6-1.1,0.6-2c0-0.8-0.2-1.5-0.6-2
				c-0.7-0.9-1.8-1.4-3.5-1.4H190v13.3h6C196.7,547.1,197.3,547,197.9,546.9z M192.6,536.1h2.9c0.6,0,1.2,0.1,1.6,0.2
				c0.5,0.2,0.7,0.6,0.7,1.2c0,0.6-0.2,1-0.5,1.2c-0.4,0.2-0.8,0.3-1.4,0.3h-3.2V536.1z M192.6,544.8v-3.6h3.3c0.6,0,1,0.1,1.3,0.2
				c0.6,0.3,0.8,0.7,0.8,1.4c0,0.8-0.3,1.4-0.9,1.7c-0.3,0.2-0.8,0.2-1.3,0.2H192.6z"/>
			<g id="XMLID_755_">
				<path id="XMLID_758_" class="st3" d="M203.2,546.2c1,0.8,2.2,1.2,3.5,1.2c1.6,0,2.8-0.5,3.7-1.4c0.6-0.6,0.9-1.2,1-1.8h-2.6
					c-0.2,0.3-0.3,0.5-0.5,0.7c-0.4,0.3-0.8,0.5-1.4,0.5c-0.6,0-1-0.1-1.4-0.4c-0.6-0.4-1-1.1-1-2.1h7.2c0-0.9,0-1.5-0.1-2
					c-0.1-0.8-0.4-1.5-0.8-2c-0.4-0.7-1-1.2-1.7-1.5c-0.7-0.3-1.5-0.5-2.3-0.5c-1.4,0-2.6,0.5-3.5,1.4c-0.9,0.9-1.4,2.2-1.4,3.9
					C201.7,544.1,202.2,545.4,203.2,546.2z M205,539.7c0.4-0.4,0.9-0.6,1.5-0.6c0.6,0,1.1,0.2,1.5,0.5c0.4,0.4,0.6,0.9,0.7,1.6h-4.4
					C204.4,540.5,204.7,540,205,539.7z"/>
				<rect id="XMLID_757_" x="203.5" y="534.5" class="st3" width="5.8" height="1.3"/>
			</g>
		</g>
	</g>
	<g id="XMLID_747_" class="st1">
		<path id="XMLID_749_" class="st2" d="M256.8,613.5L256.8,613.5c-10.5,0-19-8.5-19-19v0c0-10.5,8.5-19,19-19l0,0
			c10.5,0,19,8.5,19,19v0C275.8,605,267.3,613.5,256.8,613.5z"/>
		<path id="XMLID_748_" class="st3" d="M252.5,600.1c0,1,0.1,1.7,0.3,2.3c0.2,0.5,0.6,1,1.1,1.5c0.5,0.5,1.2,0.8,1.9,1.1
			c0.8,0.2,1.6,0.4,2.6,0.4c0.9,0,1.7-0.1,2.4-0.3c0.7-0.2,1.6-0.5,2.5-0.9v-3.4c-1.1,0.7-2.2,1.1-3.3,1.1c-0.6,0-1.2-0.1-1.6-0.4
			c-0.4-0.2-0.6-0.5-0.7-0.9c-0.1-0.4-0.2-1.2-0.2-2.4v-5.5h5.1v-3.4h-5.1v-5.5h-3.1c-0.1,1.1-0.4,2-0.8,2.7
			c-0.4,0.7-0.8,1.3-1.5,1.8c-0.6,0.5-1.3,0.9-2.2,1.2v3.1h2.4V600.1z"/>
	</g>
	<g id="XMLID_742_" class="st1">
		<path id="XMLID_744_" class="st2" d="M89.2,613.5L89.2,613.5c-10.5,0-19-8.5-19-19v0c0-10.5,8.5-19,19-19h0c10.5,0,19,8.5,19,19v0
			C108.3,605,99.8,613.5,89.2,613.5z"/>
		<path id="XMLID_743_" class="st5" d="M100.3,600L100.3,600C100.3,600,100.3,600,100.3,600C100.3,600,100.3,600,100.3,600
			L100.3,600c-0.3-0.2-0.6-0.2-0.7-0.3c0,0,0,0,0,0c-1.2-0.4-2.2-1.2-2.9-2.1c-0.4-0.5-0.8-1.1-1-1.8c0,0,0,0,0,0
			c-0.1-0.3-0.1-0.6,0-0.8c0,0,0,0,0,0c0.2-0.3,0.6-0.5,1-0.6c0,0,0,0,0,0c0.5-0.2,1-0.3,1.4-0.7c0,0,0,0,0,0
			c0.1-0.1,0.1-0.1,0.2-0.3c0,0,0-0.1,0-0.1c0-0.1,0-0.2,0-0.4c0,0,0,0,0,0c-0.1-0.2-0.3-0.4-0.5-0.5h0c-0.3-0.1-0.6-0.2-0.8-0.1
			l0,0h0c-0.3,0.1-0.5,0.2-0.7,0.2c0,0,0,0,0,0c-0.3,0.1-0.6,0.1-0.8,0c0,0,0-0.1,0-0.2h0c0-0.5,0-1,0-1.5c0,0,0,0,0,0
			c0-0.8,0.1-1.6-0.1-2.5c0,0,0,0,0,0c-0.3-1.4-1.2-2.6-2.3-3.4c-0.8-0.6-1.8-0.9-2.8-1l0,0c-0.3,0-0.7,0-1,0
			c-1.4,0-2.8,0.4-3.9,1.2c-0.8,0.6-1.5,1.5-1.9,2.5v0c-0.4,1-0.4,2-0.3,3l0,0c0,0.7,0.1,1.3,0,2c0,0,0,0,0,0c-0.3,0.1-0.6,0-1,0h0
			c-0.2,0-0.5-0.1-0.7-0.2c0,0,0,0,0,0c-0.3-0.1-0.5,0-0.7,0.2c0,0,0,0,0,0c0,0,0,0,0,0c-0.2,0.1-0.4,0.3-0.4,0.6c0,0,0,0,0,0.1
			c0,0,0,0,0,0c0,0.2,0.1,0.3,0.2,0.4c0.1,0.1,0.2,0.1,0.3,0.2c0,0,0,0,0,0c0.5,0.3,1,0.5,1.5,0.7l0,0c0.3,0.1,0.6,0.4,0.7,0.7
			c0.1,0.4-0.1,0.8-0.3,1.2v0c-0.5,1.1-1.3,2-2.3,2.7c-0.5,0.4-1.1,0.6-1.7,0.8c0,0,0,0,0,0c-0.1,0-0.4,0.1-0.6,0.4c0,0,0,0,0,0.1
			c-0.1,0.2,0,0.4,0.1,0.5c0.1,0.1,0.2,0.2,0.3,0.2c0,0,0,0,0,0c0.5,0.3,1.1,0.4,1.6,0.5c0,0,0,0,0,0c0.4,0.1,0.7,0.1,1,0.2
			c0,0,0,0.1,0.1,0.3c0.1,0.3,0.1,0.6,0.2,1c0,0.1,0.1,0.2,0.2,0.2c0.2,0.1,0.4,0,0.4,0c0,0,0,0,0,0c0.8-0.1,1.7-0.3,2.5-0.1l0,0
			c0.8,0.2,1.5,0.8,2.3,1.3v0l0,0c0.5,0.3,1.1,0.7,1.9,0.7l0,0c0,0,0,0,0,0c0.5,0,1.1,0,1.6,0c0,0,0,0,0,0c0.4,0,0.9-0.2,1.2-0.4
			c0,0,0,0,0,0c0.8-0.5,1.6-1.1,2.4-1.4h0c0.3-0.1,0.6-0.1,1-0.1c0,0,0,0,0,0c0.7,0,1.4,0,2,0.1c0,0,0,0,0.1,0
			c0.1,0,0.2-0.1,0.2-0.1c0.1-0.1,0.1-0.1,0.1-0.1c0-0.1,0-0.1,0,0c0,0,0,0,0-0.1c0.1-0.4,0.2-0.8,0.4-1c0.1-0.1,0.2-0.1,0.4-0.1
			c0,0,0,0,0,0c0.6-0.1,1.1-0.3,1.6-0.5c0,0,0,0,0,0c0.2-0.1,0.5-0.2,0.7-0.4c0,0,0,0,0,0l0,0C100.6,600.5,100.5,600.2,100.3,600
			L100.3,600z"/>
	</g>
	<g id="XMLID_737_" class="st1">
		<path id="XMLID_739_" class="st2" d="M89.2,667.5L89.2,667.5c-10.5,0-19-8.5-19-19v0c0-10.5,8.5-19,19-19h0c10.5,0,19,8.5,19,19v0
			C108.3,658.9,99.8,667.5,89.2,667.5z"/>
		<path id="XMLID_738_" class="st3" d="M96.9,639.1c-3-0.1-5,1.6-6.1,5.1c0.5-0.2,1.1-0.4,1.6-0.4c1.1,0,1.6,0.6,1.5,1.9
			c-0.1,0.7-0.5,1.8-1.5,3.3c-0.9,1.4-1.6,2.1-2,2.1c-0.6,0-1.1-1.1-1.6-3.3c-0.2-0.6-0.5-2.3-0.9-4.9c-0.4-2.5-1.4-3.6-3.1-3.4
			c-0.7,0.1-1.8,0.7-3.2,1.9c-1,0.9-2.1,1.9-3.2,2.8l1,1.3c1-0.7,1.5-1,1.7-1c0.7,0,1.4,1.2,2.1,3.5c0.6,2.1,1.2,4.3,1.7,6.4
			c0.9,2.3,1.9,3.5,3.2,3.5c2,0,4.5-1.9,7.4-5.7c2.8-3.7,4.3-6.5,4.4-8.6C100.2,640.6,99.1,639.2,96.9,639.1z"/>
	</g>
	<g id="XMLID_723_" class="st1">
		<path id="XMLID_734_" class="st2" d="M256.8,667.5L256.8,667.5c-10.5,0-19-8.5-19-19v0c0-10.5,8.5-19,19-19l0,0
			c10.5,0,19,8.5,19,19v0C275.8,658.9,267.3,667.5,256.8,667.5z"/>
		<path id="XMLID_724_" class="st3" d="M256.8,636.3c-6.7,0-12.1,5.4-12.1,12.1c0,6.7,5.4,12.1,12.1,12.1c6.7,0,12.1-5.4,12.1-12.1
			C268.9,641.7,263.5,636.3,256.8,636.3z M256.8,638.4c2.3,0,4.4,0.8,6.1,2.1c-1.2,1.6-2.9,2.8-5,3.7c-1-1.9-2.2-3.7-3.5-5.5
			C255.1,638.5,255.9,638.4,256.8,638.4z M252.3,639.5c1.3,1.8,2.5,3.6,3.6,5.4c-2.5,0.7-5.4,1.1-8.8,1.1
			C247.8,643.2,249.7,640.8,252.3,639.5z M246.8,648.4c0-0.1,0-0.2,0-0.3c3.9,0,7.2-0.5,10.1-1.3c0.2,0.5,0.5,1,0.7,1.4
			c-3.4,1.1-6.2,3.3-8.4,6.6C247.6,653.1,246.8,650.9,246.8,648.4z M256.8,658.5c-2.3,0-4.4-0.8-6.1-2.1c2-3.1,4.5-5.2,7.7-6.1
			c0.9,2.4,1.6,5,2.1,7.5C259.3,658.2,258.1,658.5,256.8,658.5z M262.3,656.8c-0.4-2.4-1.1-4.7-1.9-7c1.9-0.3,4-0.2,6.3,0.2
			C266.2,652.8,264.6,655.2,262.3,656.8z M259.6,647.8c-0.2-0.6-0.5-1.1-0.8-1.7c2.3-1,4.2-2.4,5.6-4.1c1.4,1.6,2.2,3.7,2.3,5.9
			C264.2,647.4,261.8,647.4,259.6,647.8z"/>
	</g>
	<g id="XMLID_2143_" class="st1">
		<path id="XMLID_2147_" class="st6" d="M425.6,613.5L425.6,613.5c-10.5,0-19-8.5-19-19v0c0-10.5,8.5-19,19-19h0
			c10.5,0,19,8.5,19,19v0C444.6,605,436.1,613.5,425.6,613.5z"/>
		<path id="XMLID_2144_" class="st2" d="M415,594.5c0,5.9,4.7,10.6,10.6,10.6c0.7,0,1.3-0.1,2-0.2c0.9,0.6,2,0.9,3.2,0.9
			c3.4,0,6.2-2.8,6.2-6.2c0-1.2-0.3-2.3-0.9-3.3c0.1-0.6,0.2-1.2,0.2-1.8c0-5.9-4.7-10.6-10.6-10.6c-0.7,0-1.3,0.1-2,0.2
			c-0.9-0.6-2-0.9-3.2-0.9c-3.4,0-6.2,2.8-6.2,6.2c0,1.2,0.3,2.3,0.9,3.2C415,593.2,415,593.9,415,594.5z M425.7,587
			c3.4,0.2,5.4,1.7,5.6,3.1c0.1,0.9-0.5,1.6-1.6,1.6c-1.5,0-1.7-2.1-4.4-2.1c-1.2,0-2.2,0.5-2.2,1.6c0,2.3,8.5,0.9,8.5,5.9
			c0,2.9-2.3,4.8-5.7,4.8c-3,0-6.1-1.4-6-3.7c0-0.7,0.5-1.4,1.2-1.4c1.8,0,1.8,2.6,4.6,2.6c2,0,2.7-1.1,2.7-1.8
			c0-2.7-8.6-1.1-8.6-6.2C419.8,588.7,422.1,586.8,425.7,587z"/>
	</g>
	<g id="XMLID_2133_" class="st1">
		<path id="XMLID_2140_" class="st6" d="M425.6,667.5L425.6,667.5c-10.5,0-19-8.5-19-19v0c0-10.5,8.5-19,19-19h0
			c10.5,0,19,8.5,19,19v0C444.6,658.9,436.1,667.5,425.6,667.5z"/>
		<g id="XMLID_2134_" transform="translate(-1)">
			<path id="XMLID_2139_" class="st2" d="M414.9,642.3l5.8,3.7l5.8-3.7l-5.8-3.7L414.9,642.3z"/>
			<path id="XMLID_2138_" class="st2" d="M426.6,642.3l5.8,3.7l5.8-3.7l-5.8-3.7L426.6,642.3z"/>
			<path id="XMLID_2137_" class="st2" d="M414.9,649.7l5.8,3.7l5.8-3.7l-5.8-3.7L414.9,649.7z"/>
			<path id="XMLID_2136_" class="st2" d="M432.4,645.9l-5.8,3.7l5.8,3.7l5.8-3.7L432.4,645.9z"/>
			<path id="XMLID_2135_" class="st2" d="M420.8,654.6l5.8,3.7l5.8-3.7l-5.8-3.7L420.8,654.6z"/>
		</g>
	</g>
	<g id="XMLID_2124_" class="st1">
		<path id="XMLID_2130_" class="st6" d="M369.8,613.5L369.8,613.5c-10.5,0-19-8.5-19-19v0c0-10.5,8.5-19,19-19l0,0
			c10.5,0,19,8.5,19,19v0C388.9,605,380.3,613.5,369.8,613.5z"/>
		<g id="XMLID_2125_">
			<path id="XMLID_2127_" class="st7" d="M380.3,594c-0.1-5.5-4.7-9.9-10.2-9.9c-5.5,0-10,4.3-10.2,9.7c0,0.1,0,0.3,0,0.4
				c0,1.9,0.5,3.7,1.5,5.3l-1.8,5.5l5.7-1.8c1.5,0.8,3.2,1.3,5,1.3c5.7,0,10.2-4.6,10.2-10.2C380.3,594.2,380.3,594.1,380.3,594z
				 M370,602.8c-1.8,0-3.4-0.5-4.7-1.4l-3.3,1.1l1.1-3.2c-1-1.4-1.6-3.1-1.6-5c0-0.3,0-0.6,0-0.8c0.4-4.3,4.1-7.7,8.6-7.7
				c4.5,0,8.2,3.5,8.6,7.9c0,0.2,0,0.4,0,0.7C378.6,599,374.8,602.8,370,602.8z"/>
			<path id="XMLID_2126_" class="st7" d="M374.7,596.3c-0.3-0.1-1.5-0.7-1.7-0.8c-0.2-0.1-0.4-0.1-0.6,0.1c-0.2,0.2-0.7,0.8-0.8,1
				c-0.1,0.2-0.3,0.2-0.5,0.1c-0.2-0.1-1.1-0.4-2-1.2c-0.7-0.7-1.3-1.5-1.4-1.7c-0.1-0.2,0-0.4,0.1-0.5c0.1-0.1,0.2-0.3,0.4-0.4
				c0,0,0.1-0.1,0.1-0.1c0.1-0.1,0.1-0.2,0.2-0.3c0.1-0.2,0-0.3,0-0.4c-0.1-0.1-0.6-1.4-0.8-1.9c-0.2-0.5-0.4-0.4-0.6-0.4
				c-0.1,0-0.3,0-0.5,0c-0.2,0-0.4,0.1-0.7,0.3c-0.2,0.2-0.9,0.9-0.9,2.1c0,0.3,0.1,0.6,0.1,0.8c0.3,0.9,0.8,1.6,0.9,1.7
				c0.1,0.2,1.7,2.8,4.3,3.8c2.6,1,2.6,0.7,3,0.6c0.5,0,1.5-0.6,1.7-1.2c0.2-0.6,0.2-1.1,0.1-1.2C375.1,596.5,375,596.4,374.7,596.3
				z"/>
		</g>
	</g>
	<g id="XMLID_2116_" class="st1">
		<path id="XMLID_2123_" class="st6" d="M369.8,667.5L369.8,667.5c-10.5,0-19-8.5-19-19v0c0-10.5,8.5-19,19-19l0,0
			c10.5,0,19,8.5,19,19v0C388.9,658.9,380.3,667.5,369.8,667.5z"/>
		<g id="XMLID_2117_">
			<path id="XMLID_2121_" class="st2" d="M384.4,641.1c-0.4-1.3-1.4-2.4-2.7-2.7c-2.4-0.6-11.9-0.6-11.9-0.6s-9.5,0-11.9,0.6
				c-1.3,0.4-2.3,1.4-2.7,2.7c-0.6,2.4-0.6,7.4-0.6,7.4s0,5,0.6,7.4c0.4,1.3,1.4,2.4,2.7,2.7c2.4,0.6,11.9,0.6,11.9,0.6
				s9.5,0,11.9-0.6c1.3-0.4,2.3-1.4,2.7-2.7c0.6-2.4,0.6-7.4,0.6-7.4S385.1,643.4,384.4,641.1z"/>
			<polygon id="XMLID_2118_" class="st3" points="366.7,653 366.7,643.9 374.7,648.4 			"/>
		</g>
	</g>
	<g id="XMLID_2111_" class="st1">
		<path id="XMLID_2113_" class="st6" d="M314.4,505.7L314.4,505.7c-10.5,0-19-8.5-19-19v0c0-10.5,8.5-19,19-19l0,0
			c10.5,0,19,8.5,19,19v0C333.5,497.2,325,505.7,314.4,505.7z"/>
		<path id="XMLID_2112_" class="st2" d="M304.3,493c1.8,1.2,4,1.9,6.4,1.9c7.7,0,12.1-6.5,11.8-12.4c0.8-0.6,1.5-1.3,2.1-2.2
			c-0.7,0.3-1.5,0.6-2.4,0.7c0.9-0.5,1.5-1.3,1.8-2.3c-0.8,0.5-1.7,0.8-2.6,1c-0.8-0.8-1.8-1.3-3-1.3c-2.7,0-4.7,2.5-4.1,5.1
			c-3.5-0.2-6.5-1.8-8.6-4.3c-1.1,1.9-0.6,4.3,1.3,5.6c-0.7,0-1.3-0.2-1.9-0.5c0,1.9,1.3,3.7,3.3,4.1c-0.6,0.2-1.2,0.2-1.9,0.1
			c0.5,1.7,2.1,2.9,3.9,2.9C308.7,492.7,306.5,493.3,304.3,493z"/>
	</g>
	<g id="XMLID_2104_" class="st1">
		<path id="XMLID_2108_" class="st6" d="M370.2,505.7L370.2,505.7c-10.5,0-19-8.5-19-19v0c0-10.5,8.5-19,19-19h0
			c10.5,0,19,8.5,19,19v0C389.2,497.2,380.7,505.7,370.2,505.7z"/>
		<g id="XMLID_2105_">
			<path id="XMLID_2107_" class="st2" d="M372.6,486.2h-7.7l0,2.2h5.2c-0.6,2.7-2.5,4.3-5,4.3c-3.3,0-6-2.7-6-6c0-3.3,2.7-6,6-6
				c1.6,0,3,0.6,4.1,1.6l1.7-1.5c-1.5-1.5-3.5-2.4-5.8-2.4c-4.6,0-8.3,3.7-8.3,8.3c0,4.6,3.7,8.3,8.3,8.3c4.4,0,7.6-3.3,7.6-7.9
				L372.6,486.2z"/>
			<polygon id="XMLID_2106_" class="st2" points="383.6,486.3 380.4,486.3 380.4,483.1 378.4,483.1 378.4,486.3 375.2,486.3 
				375.2,488.3 378.4,488.3 378.4,491.5 380.4,491.5 380.4,488.3 383.6,488.3 			"/>
		</g>
	</g>
	<g id="XMLID_2094_" class="st1">
		<path id="XMLID_2101_" class="st6" d="M370.2,559.6L370.2,559.6c-10.5,0-19-8.5-19-19v0c0-10.5,8.5-19,19-19h0
			c10.5,0,19,8.5,19,19v0C389.2,551.1,380.7,559.6,370.2,559.6z"/>
		<g id="XMLID_2095_">
			<g id="XMLID_2097_">
				<rect id="XMLID_2100_" x="361.6" y="536.3" class="st2" width="3.9" height="12.7"/>
				<path id="XMLID_2098_" class="st2" d="M363.5,534.7c1.3,0,2.3-1.1,2.3-2.3c0-1.3-1-2.3-2.3-2.3c-1.3,0-2.3,1.1-2.3,2.3
					C361.2,533.6,362.2,534.7,363.5,534.7z"/>
			</g>
			<path id="XMLID_2096_" class="st2" d="M371.8,542.4c0-1.8,0.8-2.9,2.4-2.9c1.4,0,2.1,1,2.1,2.9c0,1.8,0,6.7,0,6.7h3.9
				c0,0,0-4.6,0-8.1c0-3.4-1.9-5.1-4.6-5.1c-2.7,0-3.8,2.1-3.8,2.1v-1.7H368v12.7h3.8C371.8,549.1,371.8,544.4,371.8,542.4z"/>
		</g>
	</g>
	<g id="XMLID_2085_" class="st1">
		<path id="XMLID_2091_" class="st6" d="M314.4,559.6L314.4,559.6c-10.5,0-19-8.5-19-19v0c0-10.5,8.5-19,19-19l0,0
			c10.5,0,19,8.5,19,19v0C333.5,551.1,325,559.6,314.4,559.6z"/>
		<path id="XMLID_2086_" class="st2" d="M314.4,529.5c-6.1,0-11.1,5-11.1,11.1c0,6.1,5,11.1,11.1,11.1c6.1,0,11.1-5,11.1-11.1
			C325.6,534.4,320.6,529.5,314.4,529.5z M319.6,545.5c-0.2,0.3-0.6,0.4-0.9,0.2c-2.6-1.6-5.9-1.9-9.8-1.1c-0.4,0.1-0.7-0.2-0.8-0.5
			c-0.1-0.4,0.2-0.7,0.5-0.8c4.2-0.9,7.9-0.6,10.8,1.2C319.7,544.8,319.7,545.2,319.6,545.5z M320.9,542.5c-0.3,0.4-0.8,0.6-1.2,0.3
			c-3-1.8-7.6-2.4-11.1-1.3c-0.4,0.1-0.9-0.1-1.1-0.6c-0.1-0.4,0.1-0.9,0.6-1.1c4.1-1.2,9.1-0.6,12.5,1.5
			C321,541.5,321.2,542.1,320.9,542.5z M321,539.4c-3.6-2.1-9.5-2.3-12.9-1.3c-0.6,0.2-1.1-0.2-1.3-0.7c-0.2-0.6,0.2-1.1,0.7-1.3
			c3.9-1.2,10.5-0.9,14.6,1.5c0.5,0.3,0.7,0.9,0.4,1.4C322.2,539.5,321.5,539.6,321,539.4z"/>
	</g>
	<g id="XMLID_2080_" class="st1">
		<path id="XMLID_2082_" class="st6" d="M425.3,505.7L425.3,505.7c-10.5,0-19-8.5-19-19v0c0-10.5,8.5-19,19-19h0
			c10.5,0,19,8.5,19,19v0C444.3,497.2,435.8,505.7,425.3,505.7z"/>
		<path id="XMLID_2081_" class="st2" d="M422.4,498.2h4.6v-11.6h3.2l0.3-3.9H427c0,0,0-1.5,0-2.2c0-0.9,0.2-1.3,1.1-1.3
			c0.7,0,2.5,0,2.5,0v-4c0,0-2.6,0-3.2,0c-3.4,0-5,1.5-5,4.4c0,2.5,0,3.1,0,3.1H420v3.9h2.4V498.2z"/>
	</g>
	<g id="XMLID_2023_" class="st1">
		<path id="XMLID_2079_" class="st6" d="M481,505.7L481,505.7c-10.5,0-19-8.5-19-19v0c0-10.5,8.5-19,19-19l0,0c10.5,0,19,8.5,19,19
			v0C500,497.2,491.5,505.7,481,505.7z"/>
		<g id="XMLID_2024_">
			<path id="XMLID_2076_" class="st2" d="M481,478.1c2.8,0,3.1,0,4.2,0.1c1,0,1.6,0.2,1.9,0.4c0.5,0.2,0.8,0.4,1.2,0.8
				c0.4,0.4,0.6,0.7,0.8,1.2c0.1,0.4,0.3,0.9,0.4,1.9c0.1,1.1,0.1,1.4,0.1,4.2c0,2.8,0,3.1-0.1,4.2c0,1-0.2,1.6-0.4,1.9
				c-0.2,0.5-0.4,0.8-0.8,1.2c-0.4,0.4-0.7,0.6-1.2,0.8c-0.4,0.1-0.9,0.3-1.9,0.4c-1.1,0-1.4,0.1-4.2,0.1s-3.1,0-4.2-0.1
				c-1,0-1.6-0.2-1.9-0.4c-0.5-0.2-0.8-0.4-1.2-0.8c-0.4-0.4-0.6-0.7-0.8-1.2c-0.1-0.4-0.3-0.9-0.4-1.9c-0.1-1.1-0.1-1.4-0.1-4.2
				c0-2.8,0-3.1,0.1-4.2c0-1,0.2-1.6,0.4-1.9c0.2-0.5,0.4-0.8,0.8-1.2c0.4-0.4,0.7-0.6,1.2-0.8c0.4-0.1,0.9-0.3,1.9-0.4
				C477.9,478.1,478.2,478.1,481,478.1 M481,476.2c-2.8,0-3.2,0-4.3,0.1c-1.1,0.1-1.9,0.2-2.5,0.5c-0.7,0.3-1.3,0.6-1.8,1.2
				c-0.6,0.6-0.9,1.2-1.2,1.8c-0.3,0.7-0.4,1.4-0.5,2.5c-0.1,1.1-0.1,1.5-0.1,4.3c0,2.8,0,3.2,0.1,4.3c0.1,1.1,0.2,1.9,0.5,2.5
				c0.3,0.7,0.6,1.3,1.2,1.8c0.6,0.6,1.2,0.9,1.8,1.2c0.7,0.3,1.4,0.4,2.5,0.5c1.1,0.1,1.5,0.1,4.3,0.1c2.8,0,3.2,0,4.3-0.1
				c1.1-0.1,1.9-0.2,2.5-0.5c0.7-0.3,1.3-0.6,1.8-1.2c0.6-0.6,0.9-1.2,1.2-1.8c0.3-0.7,0.4-1.4,0.5-2.5c0.1-1.1,0.1-1.5,0.1-4.3
				c0-2.8,0-3.2-0.1-4.3c-0.1-1.1-0.2-1.9-0.5-2.5c-0.3-0.7-0.6-1.3-1.2-1.8c-0.6-0.6-1.2-0.9-1.8-1.2c-0.7-0.3-1.4-0.4-2.5-0.5
				C484.2,476.2,483.9,476.2,481,476.2"/>
			<path id="XMLID_2073_" class="st2" d="M481,481.3c-3,0-5.4,2.4-5.4,5.4c0,3,2.4,5.4,5.4,5.4c3,0,5.4-2.4,5.4-5.4
				C486.4,483.7,484,481.3,481,481.3 M481,490.1c-1.9,0-3.5-1.6-3.5-3.5c0-1.9,1.6-3.5,3.5-3.5s3.5,1.6,3.5,3.5
				C484.5,488.6,482.9,490.1,481,490.1"/>
			<path id="XMLID_2025_" class="st2" d="M487.8,481.1c0,0.7-0.6,1.3-1.3,1.3c-0.7,0-1.3-0.6-1.3-1.3c0-0.7,0.6-1.3,1.3-1.3
				C487.3,479.8,487.8,480.4,487.8,481.1"/>
		</g>
	</g>
	<g id="XMLID_2010_" class="st1">
		<path id="XMLID_2012_" class="st6" d="M481,559.6L481,559.6c-10.5,0-19-8.5-19-19v0c0-10.5,8.5-19,19-19l0,0c10.5,0,19,8.5,19,19
			v0C500,551.1,491.5,559.6,481,559.6z"/>
		<path id="XMLID_2011_" class="st2" d="M474.9,542.4c0.3,0.1,0.6,0,0.7-0.3c0.1-0.2,0.2-0.8,0.3-1c0.1-0.3,0.1-0.4-0.2-0.7
			c-0.5-0.6-0.9-1.4-0.9-2.5c0-3.3,2.5-6.2,6.4-6.2c3.5,0,5.4,2.1,5.4,5c0,3.7-1.7,6.9-4.1,6.9c-1.4,0-2.4-1.1-2-2.5
			c0.4-1.6,1.1-3.4,1.1-4.6c0-1.1-0.6-1.9-1.8-1.9c-1.4,0-2.5,1.4-2.5,3.4c0,1.2,0.4,2.1,0.4,2.1s-1.4,6-1.7,7.1
			c-0.5,2.1-0.1,4.7,0,4.9c0,0.2,0.2,0.2,0.3,0.1c0.1-0.2,1.8-2.2,2.3-4.2c0.2-0.6,0.9-3.6,0.9-3.6c0.5,0.9,1.8,1.6,3.2,1.6
			c4.2,0,7-3.8,7-8.9c0-3.9-3.3-7.4-8.2-7.4c-6.2,0-9.3,4.4-9.3,8.1C472.3,539.6,473.1,541.6,474.9,542.4z"/>
	</g>
	<g id="XMLID_1996_" class="st1">
		<path id="XMLID_2007_" class="st6" d="M425.3,559.6L425.3,559.6c-10.5,0-19-8.5-19-19v0c0-10.5,8.5-19,19-19h0
			c10.5,0,19,8.5,19,19v0C444.3,551.1,435.8,559.6,425.3,559.6z"/>
		<g id="XMLID_1997_">
			<path id="XMLID_2003_" class="st2" d="M422.4,546.9c0.6-0.1,1.1-0.3,1.5-0.7c0.4-0.3,0.7-0.6,0.9-1c0.4-0.6,0.6-1.3,0.6-2.1
				c0-0.8-0.2-1.4-0.5-2c-0.3-0.5-0.9-0.9-1.5-1.2c0.4-0.2,0.8-0.5,1-0.8c0.4-0.5,0.6-1.1,0.6-2c0-0.8-0.2-1.5-0.6-2
				c-0.7-0.9-1.8-1.4-3.5-1.4h-6.4v13.3h6C421.2,547.1,421.9,547,422.4,546.9z M417.2,536.1h2.9c0.6,0,1.2,0.1,1.6,0.2
				c0.5,0.2,0.7,0.6,0.7,1.2c0,0.6-0.2,1-0.5,1.2c-0.4,0.2-0.8,0.3-1.4,0.3h-3.2V536.1z M417.2,544.8v-3.6h3.3c0.6,0,1,0.1,1.3,0.2
				c0.6,0.3,0.8,0.7,0.8,1.4c0,0.8-0.3,1.4-0.9,1.7c-0.3,0.2-0.8,0.2-1.3,0.2H417.2z"/>
			<g id="XMLID_1998_">
				<path id="XMLID_2000_" class="st2" d="M427.7,546.2c1,0.8,2.2,1.2,3.5,1.2c1.6,0,2.8-0.5,3.7-1.4c0.6-0.6,0.9-1.2,1-1.8h-2.6
					c-0.2,0.3-0.3,0.5-0.5,0.7c-0.4,0.3-0.8,0.5-1.4,0.5c-0.6,0-1-0.1-1.4-0.4c-0.6-0.4-1-1.1-1-2.1h7.2c0-0.9,0-1.5-0.1-2
					c-0.1-0.8-0.4-1.5-0.8-2c-0.4-0.7-1-1.2-1.7-1.5c-0.7-0.3-1.5-0.5-2.3-0.5c-1.4,0-2.6,0.5-3.5,1.4c-0.9,0.9-1.4,2.2-1.4,3.9
					C426.2,544.1,426.7,545.4,427.7,546.2z M429.6,539.7c0.4-0.4,0.9-0.6,1.5-0.6c0.6,0,1.1,0.2,1.5,0.5c0.4,0.4,0.6,0.9,0.7,1.6
					h-4.4C429,540.5,429.2,540,429.6,539.7z"/>
				<rect id="XMLID_1999_" x="428.1" y="534.5" class="st2" width="5.8" height="1.3"/>
			</g>
		</g>
	</g>
	<g id="XMLID_1991_" class="st1">
		<path id="XMLID_1993_" class="st6" d="M481.4,613.5L481.4,613.5c-10.5,0-19-8.5-19-19v0c0-10.5,8.5-19,19-19h0
			c10.5,0,19,8.5,19,19v0C500.4,605,491.9,613.5,481.4,613.5z"/>
		<path id="XMLID_1992_" class="st2" d="M477.1,600.1c0,1,0.1,1.7,0.3,2.3c0.2,0.5,0.6,1,1.1,1.5c0.5,0.5,1.2,0.8,1.9,1.1
			c0.8,0.2,1.6,0.4,2.6,0.4c0.9,0,1.7-0.1,2.4-0.3c0.7-0.2,1.6-0.5,2.5-0.9v-3.4c-1.1,0.7-2.2,1.1-3.3,1.1c-0.6,0-1.2-0.1-1.6-0.4
			c-0.4-0.2-0.6-0.5-0.7-0.9c-0.1-0.4-0.2-1.2-0.2-2.4v-5.5h5.1v-3.4h-5.1v-5.5h-3.1c-0.1,1.1-0.4,2-0.8,2.7
			c-0.4,0.7-0.8,1.3-1.5,1.8c-0.6,0.5-1.3,0.9-2.2,1.2v3.1h2.4V600.1z"/>
	</g>
	<g id="XMLID_1981_" class="st1">
		<path id="XMLID_1988_" class="st6" d="M313.8,613.5L313.8,613.5c-10.5,0-19-8.5-19-19v0c0-10.5,8.5-19,19-19l0,0
			c10.5,0,19,8.5,19,19v0C332.8,605,324.3,613.5,313.8,613.5z"/>
		<path id="XMLID_1987_" class="st7" d="M324.8,600L324.8,600C324.8,600,324.8,600,324.8,600C324.8,600,324.8,600,324.8,600
			L324.8,600c-0.3-0.2-0.6-0.2-0.7-0.3c0,0,0,0,0,0c-1.2-0.4-2.2-1.2-2.9-2.1c-0.4-0.5-0.8-1.1-1-1.8c0,0,0,0,0,0
			c-0.1-0.3-0.1-0.6,0-0.8c0,0,0,0,0,0c0.2-0.3,0.6-0.5,1-0.6c0,0,0,0,0,0c0.5-0.2,1-0.3,1.4-0.7c0,0,0,0,0,0
			c0.1-0.1,0.1-0.1,0.2-0.3c0,0,0-0.1,0-0.1c0-0.1,0-0.2,0-0.4c0,0,0,0,0,0c-0.1-0.2-0.3-0.4-0.5-0.5h0c-0.3-0.1-0.6-0.2-0.8-0.1
			l0,0h0c-0.3,0.1-0.5,0.2-0.7,0.2c0,0,0,0,0,0c-0.3,0.1-0.6,0.1-0.8,0c0,0,0-0.1,0-0.2h0c0-0.5,0-1,0-1.5c0,0,0,0,0,0
			c0-0.8,0.1-1.6-0.1-2.5c0,0,0,0,0,0c-0.3-1.4-1.2-2.6-2.3-3.4c-0.8-0.6-1.8-0.9-2.8-1l0,0c-0.3,0-0.7,0-1,0
			c-1.4,0-2.8,0.4-3.9,1.2c-0.8,0.6-1.5,1.5-1.9,2.5v0c-0.4,1-0.4,2-0.3,3l0,0c0,0.7,0.1,1.3,0,2c0,0,0,0,0,0c-0.3,0.1-0.6,0-1,0h0
			c-0.2,0-0.5-0.1-0.7-0.2c0,0,0,0,0,0c-0.3-0.1-0.5,0-0.7,0.2c0,0,0,0,0,0c0,0,0,0,0,0c-0.2,0.1-0.4,0.3-0.4,0.6c0,0,0,0,0,0.1
			c0,0,0,0,0,0c0,0.2,0.1,0.3,0.2,0.4c0.1,0.1,0.2,0.1,0.3,0.2c0,0,0,0,0,0c0.5,0.3,1,0.5,1.5,0.7l0,0c0.3,0.1,0.6,0.4,0.7,0.7
			c0.1,0.4-0.1,0.8-0.3,1.2v0c-0.5,1.1-1.3,2-2.3,2.7c-0.5,0.4-1.1,0.6-1.7,0.8c0,0,0,0,0,0c-0.1,0-0.4,0.1-0.6,0.4c0,0,0,0,0,0.1
			c-0.1,0.2,0,0.4,0.1,0.5c0.1,0.1,0.2,0.2,0.3,0.2c0,0,0,0,0,0c0.5,0.3,1.1,0.4,1.6,0.5c0,0,0,0,0,0c0.4,0.1,0.7,0.1,1,0.2
			c0,0,0,0.1,0.1,0.3c0.1,0.3,0.1,0.6,0.2,1c0,0.1,0.1,0.2,0.2,0.2c0.2,0.1,0.4,0,0.4,0c0,0,0,0,0,0c0.8-0.1,1.7-0.3,2.5-0.1l0,0
			c0.8,0.2,1.5,0.8,2.3,1.3v0l0,0c0.5,0.3,1.1,0.7,1.9,0.7l0,0c0,0,0,0,0,0c0.5,0,1.1,0,1.6,0c0,0,0,0,0,0c0.4,0,0.9-0.2,1.2-0.4
			c0,0,0,0,0,0c0.8-0.5,1.6-1.1,2.4-1.4h0c0.3-0.1,0.6-0.1,1-0.1c0,0,0,0,0,0c0.7,0,1.4,0,2,0.1c0,0,0,0,0.1,0
			c0.1,0,0.2-0.1,0.2-0.1c0.1-0.1,0.1-0.1,0.1-0.1c0-0.1,0-0.1,0,0c0,0,0,0,0-0.1c0.1-0.4,0.2-0.8,0.4-1c0.1-0.1,0.2-0.1,0.4-0.1
			c0,0,0,0,0,0c0.6-0.1,1.1-0.3,1.6-0.5c0,0,0,0,0,0c0.2-0.1,0.5-0.2,0.7-0.4c0,0,0,0,0,0l0,0C325.1,600.5,325.1,600.2,324.8,600
			L324.8,600z"/>
	</g>
	<g id="XMLID_823_" class="st1">
		<path id="XMLID_832_" class="st6" d="M313.8,667.5L313.8,667.5c-10.5,0-19-8.5-19-19v0c0-10.5,8.5-19,19-19l0,0
			c10.5,0,19,8.5,19,19v0C332.8,658.9,324.3,667.5,313.8,667.5z"/>
		<path id="XMLID_831_" class="st2" d="M321.5,639.1c-3-0.1-5,1.6-6.1,5.1c0.5-0.2,1.1-0.4,1.6-0.4c1.1,0,1.6,0.6,1.5,1.9
			c-0.1,0.7-0.5,1.8-1.5,3.3c-0.9,1.4-1.6,2.1-2,2.1c-0.6,0-1.1-1.1-1.6-3.3c-0.2-0.6-0.5-2.3-0.9-4.9c-0.4-2.5-1.4-3.6-3.1-3.4
			c-0.7,0.1-1.8,0.7-3.2,1.9c-1,0.9-2.1,1.9-3.2,2.8l1,1.3c1-0.7,1.5-1,1.7-1c0.7,0,1.4,1.2,2.1,3.5c0.6,2.1,1.2,4.3,1.7,6.4
			c0.9,2.3,1.9,3.5,3.2,3.5c2,0,4.5-1.9,7.4-5.7c2.8-3.7,4.3-6.5,4.4-8.6C324.7,640.6,323.7,639.2,321.5,639.1z"/>
	</g>
	<g id="XMLID_736_" class="st1">
		<path id="XMLID_815_" class="st6" d="M481.4,667.5L481.4,667.5c-10.5,0-19-8.5-19-19v0c0-10.5,8.5-19,19-19h0c10.5,0,19,8.5,19,19
			v0C500.4,658.9,491.9,667.5,481.4,667.5z"/>
		<path id="XMLID_740_" class="st2" d="M481.4,636.3c-6.7,0-12.1,5.4-12.1,12.1c0,6.7,5.4,12.1,12.1,12.1c6.7,0,12.1-5.4,12.1-12.1
			C493.5,641.7,488.1,636.3,481.4,636.3z M481.4,638.4c2.3,0,4.4,0.8,6.1,2.1c-1.2,1.6-2.9,2.8-5,3.7c-1-1.9-2.2-3.7-3.5-5.5
			C479.7,638.5,480.5,638.4,481.4,638.4z M476.8,639.5c1.3,1.8,2.5,3.6,3.6,5.4c-2.5,0.7-5.4,1.1-8.8,1.1
			C472.3,643.2,474.3,640.8,476.8,639.5z M471.3,648.4c0-0.1,0-0.2,0-0.3c3.9,0,7.2-0.5,10.1-1.3c0.2,0.5,0.5,1,0.7,1.4
			c-3.4,1.1-6.2,3.3-8.4,6.6C472.2,653.1,471.3,650.9,471.3,648.4z M481.4,658.5c-2.3,0-4.4-0.8-6.1-2.1c2-3.1,4.5-5.2,7.7-6.1
			c0.9,2.4,1.6,5,2.1,7.5C483.8,658.2,482.6,658.5,481.4,658.5z M486.9,656.8c-0.4-2.4-1.1-4.7-1.9-7c1.9-0.3,4-0.2,6.3,0.2
			C490.8,652.8,489.2,655.2,486.9,656.8z M484.2,647.8c-0.2-0.6-0.5-1.1-0.8-1.7c2.3-1,4.2-2.4,5.6-4.1c1.4,1.6,2.2,3.7,2.3,5.9
			C488.7,647.4,486.3,647.4,484.2,647.8z"/>
	</g>
	<g id="XMLID_2407_" class="st1">
		<path id="XMLID_2408_" class="st2" d="M188.8,713.8c2.3,1.5,5,2.3,7.9,2.3c9.6,0,15.1-8.1,14.7-15.4c1-0.7,1.9-1.6,2.6-2.7
			c-0.9,0.4-1.9,0.7-3,0.8c1.1-0.6,1.9-1.7,2.3-2.9c-1,0.6-2.1,1-3.3,1.3c-0.9-1-2.3-1.6-3.8-1.6c-3.3,0-5.8,3.1-5,6.4
			c-4.3-0.2-8.1-2.3-10.7-5.4c-1.4,2.3-0.7,5.4,1.6,6.9c-0.9,0-1.7-0.3-2.3-0.6c-0.1,2.4,1.7,4.6,4.2,5.1c-0.7,0.2-1.5,0.2-2.3,0.1
			c0.7,2.1,2.6,3.6,4.8,3.6C194.3,713.4,191.6,714.1,188.8,713.8z"/>
	</g>
	<g id="XMLID_2402_" class="st1">
		<path id="XMLID_2403_" class="st2" d="M82.4,720.2h5.8v-14.5h4l0.4-4.8h-4.5c0,0,0-1.8,0-2.8c0-1.1,0.2-1.6,1.3-1.6
			c0.9,0,3.1,0,3.1,0v-5c0,0-3.3,0-4,0c-4.3,0-6.2,1.9-6.2,5.5c0,3.2,0,3.9,0,3.9h-3v4.9h3V720.2z"/>
	</g>
	<g id="XMLID_2392_" class="st1">
		<g id="XMLID_2393_">
			<path id="XMLID_2398_" class="st2" d="M142.4,695.2c3.5,0,3.9,0,5.3,0.1c1.3,0.1,2,0.3,2.4,0.4c0.6,0.2,1,0.5,1.5,1
				c0.5,0.5,0.7,0.9,1,1.5c0.2,0.5,0.4,1.1,0.4,2.4c0.1,1.4,0.1,1.8,0.1,5.3c0,3.5,0,3.9-0.1,5.3c-0.1,1.3-0.3,2-0.4,2.4
				c-0.2,0.6-0.5,1-1,1.5c-0.5,0.5-0.9,0.7-1.5,1c-0.5,0.2-1.1,0.4-2.4,0.4c-1.4,0.1-1.8,0.1-5.3,0.1c-3.5,0-3.9,0-5.3-0.1
				c-1.3-0.1-2-0.3-2.4-0.4c-0.6-0.2-1-0.5-1.5-1c-0.5-0.5-0.7-0.9-1-1.5c-0.2-0.5-0.4-1.1-0.4-2.4c-0.1-1.4-0.1-1.8-0.1-5.3
				c0-3.5,0-3.9,0.1-5.3c0.1-1.3,0.3-2,0.4-2.4c0.2-0.6,0.5-1,1-1.5c0.5-0.5,0.9-0.7,1.5-1c0.5-0.2,1.1-0.4,2.4-0.4
				C138.5,695.2,138.9,695.2,142.4,695.2 M142.4,692.9c-3.5,0-4,0-5.4,0.1c-1.4,0.1-2.3,0.3-3.2,0.6c-0.9,0.3-1.6,0.8-2.3,1.5
				c-0.7,0.7-1.2,1.4-1.5,2.3c-0.3,0.8-0.5,1.8-0.6,3.2c-0.1,1.4-0.1,1.8-0.1,5.4c0,3.5,0,4,0.1,5.4c0.1,1.4,0.3,2.3,0.6,3.2
				c0.3,0.9,0.8,1.6,1.5,2.3c0.7,0.7,1.4,1.2,2.3,1.5c0.8,0.3,1.8,0.5,3.2,0.6c1.4,0.1,1.8,0.1,5.4,0.1c3.5,0,4,0,5.4-0.1
				c1.4-0.1,2.3-0.3,3.2-0.6c0.9-0.3,1.6-0.8,2.3-1.5c0.7-0.7,1.2-1.4,1.5-2.3c0.3-0.8,0.5-1.8,0.6-3.2c0.1-1.4,0.1-1.8,0.1-5.4
				c0-3.5,0-4-0.1-5.4c-0.1-1.4-0.3-2.3-0.6-3.2c-0.3-0.9-0.8-1.6-1.5-2.3c-0.7-0.7-1.4-1.2-2.3-1.5c-0.8-0.3-1.8-0.5-3.2-0.6
				C146.4,692.9,145.9,692.9,142.4,692.9"/>
			<path id="XMLID_2395_" class="st2" d="M142.4,699.2c-3.7,0-6.7,3-6.7,6.7s3,6.7,6.7,6.7c3.7,0,6.7-3,6.7-6.7
				S146.1,699.2,142.4,699.2 M142.4,710.2c-2.4,0-4.3-1.9-4.3-4.3c0-2.4,1.9-4.3,4.3-4.3c2.4,0,4.3,1.9,4.3,4.3
				C146.8,708.3,144.8,710.2,142.4,710.2"/>
			<path id="XMLID_2394_" class="st2" d="M150.9,698.9c0,0.9-0.7,1.6-1.6,1.6c-0.9,0-1.6-0.7-1.6-1.6c0-0.9,0.7-1.6,1.6-1.6
				C150.2,697.4,150.9,698.1,150.9,698.9"/>
		</g>
	</g>
	<g id="XMLID_2385_" class="st1">
		<g id="XMLID_2386_">
			<path id="XMLID_2388_" class="st2" d="M262.1,705.3h-9.6l0,2.7h6.5c-0.8,3.3-3.1,5.4-6.3,5.4c-4.2,0-7.5-3.4-7.5-7.5
				s3.4-7.5,7.5-7.5c2,0,3.8,0.8,5.1,2l2.1-1.8c-1.9-1.8-4.4-3-7.2-3c-5.7,0-10.3,4.6-10.3,10.3c0,5.7,4.6,10.3,10.3,10.3
				c5.5,0,9.4-4.2,9.4-9.9L262.1,705.3z"/>
			<polygon id="XMLID_2387_" class="st2" points="275.9,705.4 271.9,705.4 271.9,701.4 269.4,701.4 269.4,705.4 265.5,705.4 
				265.5,707.9 269.4,707.9 269.4,711.9 271.9,711.9 271.9,707.9 275.9,707.9 			"/>
		</g>
	</g>
	<g id="XMLID_2345_" class="st1">
		<path id="XMLID_2346_" class="st2" d="M422.6,712.9c0,1.2,0.1,2.2,0.4,2.8c0.3,0.6,0.7,1.3,1.4,1.8c0.7,0.6,1.5,1,2.4,1.3
			c0.9,0.3,2,0.5,3.3,0.5c1.1,0,2.1-0.1,3-0.3c0.9-0.2,2-0.6,3.1-1.1v-4.2c-1.3,0.9-2.7,1.3-4.1,1.3c-0.8,0-1.4-0.2-2-0.5
			c-0.4-0.3-0.8-0.6-0.9-1.1c-0.2-0.4-0.2-1.4-0.2-3v-6.9h6.4v-4.2h-6.4v-6.8h-3.8c-0.2,1.4-0.5,2.5-0.9,3.4
			c-0.5,0.9-1.1,1.7-1.8,2.3c-0.8,0.6-1.7,1.1-2.7,1.5v3.8h2.9V712.9z"/>
	</g>
	<g id="XMLID_2340_" class="st1">
		<path id="XMLID_2341_" class="st7" d="M383.1,712.8L383.1,712.8C383.1,712.7,383.1,712.7,383.1,712.8
			C383.1,712.7,383.1,712.7,383.1,712.8L383.1,712.8c-0.4-0.2-0.7-0.3-0.9-0.3c0,0,0,0,0,0c-1.5-0.5-2.7-1.5-3.7-2.7
			c-0.5-0.7-1-1.4-1.3-2.2c0,0,0,0,0,0c-0.1-0.3-0.1-0.7,0-0.9c0,0,0,0,0,0c0.3-0.4,0.7-0.6,1.3-0.8c0,0,0,0,0,0
			c0.6-0.2,1.2-0.4,1.7-0.9c0,0,0,0,0,0c0.1-0.1,0.2-0.2,0.2-0.3c0,0,0-0.1,0-0.1c0-0.1,0-0.3,0-0.4c0,0,0,0,0,0
			c-0.1-0.3-0.4-0.5-0.6-0.6h0c-0.3-0.2-0.7-0.2-1-0.1l0,0h0c-0.3,0.1-0.6,0.2-0.9,0.3c0,0,0,0,0,0c-0.4,0.1-0.7,0.1-1,0
			c0,0,0-0.1,0-0.2h0c0-0.6,0-1.3,0-1.9c0,0,0,0,0,0c0-1,0.1-2-0.1-3.1c0,0,0,0,0,0c-0.3-1.8-1.5-3.3-2.9-4.3
			c-1-0.7-2.3-1.1-3.5-1.3l0,0c-0.4,0-0.9-0.1-1.3-0.1c-1.7,0-3.5,0.5-4.8,1.5c-1,0.8-1.8,1.9-2.4,3.1v0c-0.5,1.2-0.4,2.5-0.4,3.7
			l0,0c0,0.9,0.1,1.7,0.1,2.5c0,0,0,0,0,0.1c-0.4,0.1-0.8,0-1.2,0h0c-0.3,0-0.6-0.2-0.9-0.3c0,0,0,0,0,0c-0.3-0.1-0.7,0-0.9,0.2
			c0,0,0,0,0,0c0,0,0,0,0,0c-0.2,0.1-0.5,0.4-0.5,0.7c0,0,0,0,0,0.1c0,0,0,0,0,0c0,0.2,0.2,0.4,0.3,0.5c0.1,0.1,0.2,0.2,0.3,0.2
			c0,0,0,0,0,0c0.6,0.4,1.3,0.6,1.9,0.8l0,0c0.4,0.2,0.8,0.5,0.9,0.8c0.1,0.4-0.1,1-0.3,1.5v0c-0.7,1.3-1.7,2.5-2.9,3.3
			c-0.6,0.4-1.4,0.8-2.1,1c0,0,0,0,0,0c-0.2,0.1-0.5,0.1-0.8,0.4c0,0,0,0.1,0,0.1c-0.1,0.2,0,0.5,0.1,0.6c0.1,0.1,0.2,0.2,0.3,0.3
			c0,0,0,0,0,0c0.6,0.4,1.3,0.5,2,0.7c0,0,0,0,0,0c0.5,0.1,0.9,0.2,1.2,0.3c0,0,0.1,0.1,0.1,0.3c0.1,0.3,0.2,0.8,0.3,1.2
			c0,0.1,0.1,0.2,0.3,0.2c0.3,0.1,0.4,0,0.5,0c0,0,0,0,0,0c1.1-0.2,2.1-0.3,3.1-0.1l0,0c1,0.3,1.9,1,2.9,1.6v0l0,0
			c0.7,0.4,1.4,0.8,2.3,0.9l0,0c0,0,0,0,0,0c0.7,0,1.3,0,2,0c0,0,0,0,0,0c0.5-0.1,1.1-0.2,1.5-0.5c0,0,0,0,0,0c1.1-0.6,2-1.3,3-1.8
			h0c0.3-0.1,0.7-0.1,1.2-0.1c0,0,0,0,0,0c0.9,0,1.7,0,2.5,0.1c0,0,0.1,0,0.1,0c0.1,0,0.2-0.1,0.3-0.2c0.1-0.1,0.1-0.1,0.1-0.2
			c0-0.1,0-0.1,0-0.1c0,0,0,0,0-0.1c0.2-0.5,0.2-1,0.5-1.2c0.1-0.1,0.3-0.2,0.5-0.2c0,0,0,0,0,0c0.7-0.1,1.4-0.3,2-0.6c0,0,0,0,0,0
			c0.2-0.1,0.6-0.2,0.8-0.5c0,0,0,0,0,0l0,0C383.5,713.3,383.4,712.9,383.1,712.8L383.1,712.8z"/>
	</g>
	<g id="XMLID_2331_" class="st1">
		<g id="XMLID_2332_">
			<path id="XMLID_2334_" class="st7" d="M326.3,705.2c-0.2-6.9-5.8-12.4-12.8-12.4c-6.9,0-12.5,5.4-12.8,12.1c0,0.2,0,0.4,0,0.6
				c0,2.4,0.7,4.6,1.8,6.5l-2.3,6.8l7.1-2.2c1.8,1,3.9,1.6,6.2,1.6c7.1,0,12.8-5.7,12.8-12.7C326.3,705.4,326.3,705.3,326.3,705.2z
				 M313.5,716.2c-2.2,0-4.2-0.6-5.9-1.8l-4.1,1.3l1.3-4c-1.3-1.8-2-3.9-2-6.2c0-0.3,0-0.7,0.1-1c0.5-5.4,5.1-9.6,10.7-9.6
				c5.6,0,10.3,4.3,10.7,9.8c0,0.3,0,0.6,0,0.8C324.2,711.4,319.4,716.2,313.5,716.2z"/>
			<path id="XMLID_2333_" class="st7" d="M319.4,708.1c-0.3-0.2-1.9-0.9-2.1-1c-0.3-0.1-0.5-0.2-0.7,0.2c-0.2,0.3-0.8,1-1,1.2
				c-0.2,0.2-0.4,0.2-0.7,0.1c-0.3-0.2-1.3-0.5-2.5-1.5c-0.9-0.8-1.6-1.8-1.7-2.1c-0.2-0.3,0-0.5,0.1-0.6c0.1-0.1,0.3-0.4,0.5-0.5
				c0-0.1,0.1-0.1,0.1-0.1c0.1-0.1,0.1-0.2,0.2-0.4c0.1-0.2,0.1-0.4,0-0.5c-0.1-0.2-0.7-1.7-1-2.3c-0.3-0.6-0.5-0.5-0.7-0.5
				c-0.2,0-0.4,0-0.6,0c-0.2,0-0.6,0.1-0.8,0.4c-0.3,0.3-1.1,1.1-1.1,2.6c0,0.4,0.1,0.7,0.2,1.1c0.3,1.1,1,2,1.1,2.2
				c0.2,0.2,2.2,3.4,5.3,4.7c3.2,1.2,3.2,0.8,3.8,0.8c0.6,0,1.9-0.7,2.1-1.5c0.3-0.7,0.3-1.3,0.2-1.5
				C319.9,708.3,319.7,708.3,319.4,708.1z"/>
		</g>
	</g>
	<g id="XMLID_2324_" class="st1">
		<path id="XMLID_2325_" class="st2" d="M470.2,705.9c0,7.3,5.9,13.2,13.2,13.2c0.8,0,1.7-0.1,2.5-0.2c1.2,0.7,2.5,1.1,4,1.1
			c4.3,0,7.7-3.5,7.7-7.7c0-1.5-0.4-2.9-1.2-4.1c0.1-0.7,0.2-1.5,0.2-2.3c0-7.3-5.9-13.2-13.2-13.2c-0.8,0-1.6,0.1-2.4,0.2
			c-1.2-0.7-2.5-1.1-4-1.1c-4.3,0-7.7,3.5-7.7,7.7c0,1.5,0.4,2.9,1.1,4C470.3,704.3,470.2,705.1,470.2,705.9z M483.6,696.5
			c4.3,0.2,6.8,2.1,7,3.9c0.1,1.1-0.6,2-2,2c-1.9,0-2.1-2.6-5.4-2.6c-1.5,0-2.8,0.6-2.8,2c0,2.8,10.6,1.2,10.6,7.4
			c0,3.6-2.9,5.9-7.1,5.9c-3.8,0-7.5-1.7-7.5-4.6c0-0.9,0.7-1.7,1.5-1.7c2.2,0,2.2,3.3,5.7,3.3c2.5,0,3.3-1.3,3.3-2.3
			c0-3.4-10.7-1.3-10.7-7.7C476.3,698.6,479.1,696.2,483.6,696.5z"/>
	</g>
	<g id="XMLID_2319_" class="st1">
		<path id="XMLID_2320_" class="st2" d="M134.8,759c0.4,0.2,0.7,0,0.8-0.4c0.1-0.3,0.3-1,0.3-1.3c0.1-0.4,0.1-0.5-0.2-0.9
			c-0.7-0.8-1.1-1.8-1.1-3.2c0-4.1,3.1-7.7,8-7.7c4.3,0,6.7,2.7,6.7,6.2c0,4.7-2.1,8.6-5.1,8.6c-1.7,0-3-1.4-2.6-3.1
			c0.5-2,1.4-4.3,1.4-5.7c0-1.3-0.7-2.4-2.2-2.4c-1.7,0-3.1,1.8-3.1,4.2c0,1.5,0.5,2.6,0.5,2.6s-1.8,7.5-2.1,8.8
			c-0.6,2.6-0.1,5.8,0,6.1c0,0.2,0.3,0.2,0.4,0.1c0.2-0.2,2.2-2.8,2.9-5.3c0.2-0.7,1.1-4.4,1.1-4.4c0.6,1.1,2.2,2,4,2
			c5.2,0,8.7-4.7,8.7-11.1c0-4.8-4.1-9.3-10.2-9.3c-7.7,0-11.6,5.5-11.6,10.1C131.5,755.6,132.6,758.1,134.8,759z"/>
	</g>
	<g id="XMLID_2305_" class="st1">
		<g id="XMLID_2306_">
			<path id="XMLID_2312_" class="st2" d="M82.4,764.7c0.7-0.1,1.3-0.4,1.9-0.8c0.5-0.4,0.9-0.8,1.2-1.3c0.5-0.8,0.7-1.7,0.7-2.6
				c0-1-0.2-1.8-0.6-2.4c-0.4-0.7-1.1-1.2-1.9-1.5c0.6-0.3,1-0.6,1.3-0.9c0.5-0.6,0.8-1.4,0.8-2.4c0-1-0.3-1.8-0.8-2.5
				c-0.8-1.1-2.3-1.7-4.3-1.8h-8v16.6h7.5C80.9,764.9,81.7,764.8,82.4,764.7z M75.9,751.2h3.6c0.8,0,1.4,0.1,2,0.3
				c0.6,0.2,0.9,0.8,0.9,1.5c0,0.7-0.2,1.2-0.7,1.5c-0.4,0.3-1,0.4-1.8,0.4h-4V751.2z M75.9,762v-4.4H80c0.7,0,1.3,0.1,1.7,0.3
				c0.7,0.3,1.1,0.9,1.1,1.8c0,1-0.4,1.7-1.1,2.1c-0.4,0.2-1,0.3-1.7,0.3H75.9z"/>
			<g id="XMLID_2307_">
				<path id="XMLID_2309_" class="st2" d="M89,763.8c1.2,1,2.7,1.5,4.3,1.5c2,0,3.5-0.6,4.6-1.8c0.7-0.8,1.1-1.5,1.2-2.2h-3.3
					c-0.2,0.4-0.4,0.6-0.7,0.8c-0.5,0.4-1.1,0.6-1.8,0.6c-0.7,0-1.3-0.2-1.8-0.5c-0.8-0.5-1.2-1.4-1.3-2.6h8.9c0-1.1,0-1.9-0.1-2.4
					c-0.1-1-0.5-1.8-1-2.5c-0.6-0.8-1.3-1.4-2.1-1.8c-0.9-0.4-1.8-0.6-2.9-0.6c-1.8,0-3.3,0.6-4.4,1.7c-1.1,1.1-1.7,2.8-1.7,4.9
					C87.2,761.1,87.8,762.8,89,763.8z M91.3,755.6c0.5-0.5,1.1-0.7,1.9-0.7c0.8,0,1.4,0.2,1.9,0.7c0.5,0.4,0.8,1.1,0.9,1.9h-5.5
					C90.6,756.7,90.9,756.1,91.3,755.6z"/>
				<rect id="XMLID_2308_" x="89.4" y="749.2" class="st2" width="7.2" height="1.7"/>
			</g>
		</g>
	</g>
	<g id="XMLID_2296_" class="st1">
		<g id="XMLID_2297_">
			<g id="XMLID_2299_">
				<rect id="XMLID_2301_" x="248.4" y="751.5" class="st2" width="4.9" height="15.9"/>
				<path id="XMLID_2300_" class="st2" d="M250.8,749.4c1.6,0,2.9-1.3,2.9-2.9s-1.3-2.9-2.9-2.9c-1.6,0-2.9,1.3-2.9,2.9
					S249.2,749.4,250.8,749.4z"/>
			</g>
			<path id="XMLID_2298_" class="st2" d="M261.2,759c0-2.2,1-3.6,3-3.6c1.8,0,2.7,1.3,2.7,3.6c0,2.3,0,8.3,0,8.3h4.9c0,0,0-5.8,0-10
				c0-4.2-2.4-6.3-5.8-6.3c-3.4,0-4.8,2.6-4.8,2.6v-2.1h-4.7v15.9h4.7C261.2,767.4,261.2,761.5,261.2,759z"/>
		</g>
	</g>
	<g id="XMLID_2287_" class="st1">
		<path id="XMLID_2288_" class="st2" d="M201.4,742.9c-7.7,0-13.9,6.2-13.9,13.9c0,7.7,6.2,13.9,13.9,13.9c7.7,0,13.9-6.2,13.9-13.9
			C215.3,749.1,209.1,742.9,201.4,742.9z M207.8,763c-0.3,0.4-0.8,0.6-1.2,0.3c-3.3-2-7.3-2.4-12.2-1.3c-0.5,0.1-0.9-0.2-1-0.6
			c-0.1-0.5,0.2-0.9,0.6-1c5.3-1.2,9.8-0.7,13.4,1.5C208,762,208,762.5,207.8,763z M209.5,759.1c-0.3,0.5-1,0.7-1.5,0.3
			c-3.7-2.3-9.4-3-13.8-1.6c-0.6,0.1-1.2-0.1-1.3-0.7c-0.1-0.6,0.1-1.2,0.7-1.3c5.1-1.5,11.3-0.8,15.6,1.9
			C209.6,758,209.8,758.7,209.5,759.1z M209.6,755.3c-4.4-2.6-11.9-2.9-16.1-1.6c-0.7,0.2-1.4-0.2-1.6-0.8c-0.2-0.7,0.2-1.4,0.8-1.6
			c4.9-1.5,13-1.2,18.2,1.9c0.6,0.3,0.8,1.2,0.5,1.8C211.1,755.4,210.3,755.6,209.6,755.3z"/>
	</g>
	<g id="XMLID_2282_" class="st1">
		<path id="XMLID_2283_" class="st2" d="M378.9,745.2c-3.7-0.1-6.3,2-7.6,6.3c0.7-0.3,1.3-0.4,2-0.4c1.4,0,2,0.8,1.8,2.3
			c-0.1,0.9-0.7,2.3-1.8,4.1c-1.1,1.8-2,2.7-2.5,2.7c-0.7,0-1.4-1.4-2-4.1c-0.2-0.8-0.6-2.9-1.1-6.2c-0.5-3.1-1.8-4.5-3.9-4.3
			c-0.9,0.1-2.2,0.9-4,2.4c-1.3,1.2-2.6,2.3-3.9,3.5l1.3,1.6c1.2-0.8,1.9-1.3,2.1-1.3c0.9,0,1.8,1.5,2.6,4.3c0.7,2.7,1.4,5.3,2.2,8
			c1.1,2.9,2.4,4.3,4,4.3c2.5,0,5.6-2.4,9.3-7.1c3.5-4.6,5.4-8.1,5.5-10.8C383,747,381.7,745.2,378.9,745.2z"/>
	</g>
	<g id="XMLID_2270_" class="st1">
		<path id="XMLID_2271_" class="st2" d="M427.9,741.7c-8.3,0-15.1,6.8-15.1,15.1c0,8.3,6.8,15.1,15.1,15.1c8.3,0,15.1-6.8,15.1-15.1
			C443,748.4,436.3,741.7,427.9,741.7z M427.9,744.3c2.9,0,5.5,1,7.6,2.6c-1.5,2-3.6,3.5-6.3,4.6c-1.3-2.3-2.7-4.6-4.4-6.8
			C425.8,744.4,426.9,744.3,427.9,744.3z M422.3,745.7c1.7,2.2,3.2,4.5,4.5,6.8c-3.1,0.9-6.7,1.4-10.9,1.4
			C416.7,750.3,419.1,747.3,422.3,745.7z M415.4,756.8c0-0.1,0-0.2,0-0.3c4.8,0,9-0.6,12.5-1.7c0.3,0.6,0.6,1.2,0.8,1.8
			c-4.3,1.3-7.8,4.1-10.5,8.2C416.5,762.6,415.4,759.8,415.4,756.8z M427.9,769.3c-2.9,0-5.5-1-7.7-2.6c2.5-3.9,5.6-6.4,9.6-7.6
			c1.2,3,2,6.2,2.6,9.4C431,769,429.5,769.3,427.9,769.3z M434.8,767.2c-0.6-3-1.4-5.9-2.4-8.7c2.4-0.3,5-0.2,7.8,0.2
			C439.7,762.2,437.7,765.3,434.8,767.2z M431.4,756c-0.3-0.7-0.6-1.4-1-2.1c2.9-1.3,5.2-3,7-5.1c1.7,2,2.8,4.6,2.9,7.4
			C437.1,755.6,434.1,755.5,431.4,756z"/>
	</g>
	<g id="XMLID_2255_" class="st1">
		<g id="XMLID_2257_" transform="translate(-1)">
			<path id="XMLID_2266_" class="st2" d="M469.9,749.1l7.3,4.6l7.3-4.6l-7.3-4.6L469.9,749.1z"/>
			<path id="XMLID_2265_" class="st2" d="M484.4,749.1l7.3,4.6l7.3-4.6l-7.3-4.6L484.4,749.1z"/>
			<path id="XMLID_2260_" class="st2" d="M469.9,758.3l7.3,4.6l7.3-4.6l-7.3-4.6L469.9,758.3z"/>
			<path id="XMLID_2259_" class="st2" d="M491.7,753.7l-7.3,4.6l7.3,4.6l7.3-4.6L491.7,753.7z"/>
			<path id="XMLID_2258_" class="st2" d="M477.2,764.5l7.3,4.6l7.3-4.6l-7.3-4.6L477.2,764.5z"/>
		</g>
	</g>
	<g id="XMLID_2245_" class="st1">
		<g id="XMLID_2250_">
			<path id="XMLID_2252_" class="st2" d="M331.4,747.6c-0.4-1.6-1.7-2.9-3.4-3.4c-3-0.8-14.8-0.8-14.8-0.8s-11.9,0-14.8,0.8
				c-1.6,0.4-2.9,1.7-3.4,3.4c-0.8,3-0.8,9.2-0.8,9.2s0,6.2,0.8,9.2c0.4,1.6,1.7,2.9,3.4,3.4c3,0.8,14.8,0.8,14.8,0.8
				s11.9,0,14.8-0.8c1.6-0.4,2.9-1.7,3.4-3.4c0.8-3,0.8-9.2,0.8-9.2S332.2,750.6,331.4,747.6z"/>
			<polygon id="XMLID_2251_" class="st3" points="309.4,762.4 309.4,751.1 319.3,756.8 			"/>
		</g>
	</g>
	<rect id="XMLID_1673_" x="35.3" y="339.1" class="st1" width="500" height="24.1"/>
	<rect id="XMLID_774_" x="35.3" y="815" class="st1" width="500" height="24.1"/>
	<g id="XMLID_861_" class="st1">
		<g id="XMLID_990_">
			<path id="XMLID_1036_" d="M223,426.5c1.7,0,2.7,0.8,2.7,2.1c0,1-0.6,1.7-1.6,1.9c1.2,0.2,1.9,1,1.9,2.1c0,1.4-1.1,2.3-3,2.3h-3.6
				v-8.5H223z M220.4,430.2h2.6c1.1,0,1.8-0.5,1.8-1.4c0-0.9-0.7-1.3-1.8-1.3h-2.6V430.2z M220.4,434.1h2.6c1.4,0,2.2-0.5,2.2-1.5
				c0-0.9-0.8-1.5-2.2-1.5h-2.6V434.1z"/>
			<path id="XMLID_1033_" d="M233.6,432.9l-0.9,2.1h-1l3.8-8.5h1l3.8,8.5h-1.1l-0.9-2.1H233.6z M235.9,427.6l-1.9,4.3h3.8
				L235.9,427.6z"/>
			<path id="XMLID_1008_" d="M253,427.7l-0.6,0.7c-0.7-0.7-1.6-1.1-2.5-1.1c-1.9,0-3.4,1.5-3.4,3.3c0,1.9,1.5,3.3,3.4,3.3
				c0.9,0,1.8-0.4,2.5-1l0.6,0.7c-0.8,0.8-2,1.3-3.1,1.3c-2.4,0-4.4-1.9-4.4-4.3c0-2.4,2-4.2,4.4-4.2C251,426.5,252.1,427,253,427.7
				z"/>
			<path id="XMLID_1006_" d="M262.2,431l-1.6,1.8v2.2h-1v-8.5h1v4.9l4.6-4.9h1.1l-3.4,3.7l3.6,4.8h-1.2L262.2,431z"/>
			<path id="XMLID_1004_" d="M279.3,430.9v3.1c-0.8,0.7-2,1.1-3.1,1.1c-2.5,0-4.4-1.9-4.4-4.3c0-2.4,2-4.3,4.5-4.3
				c1.2,0,2.3,0.4,3.1,1.2l-0.6,0.7c-0.7-0.6-1.6-1-2.6-1c-1.9,0-3.5,1.5-3.5,3.4c0,1.9,1.6,3.4,3.5,3.4c0.8,0,1.6-0.3,2.2-0.7v-2.6
				H279.3z"/>
			<path id="XMLID_1001_" d="M290.3,432.3c-0.2,0-0.4,0-0.6,0h-2.3v2.7h-1v-8.5h3.2c2.1,0,3.3,1,3.3,2.8c0,1.4-0.7,2.3-1.9,2.7
				l2,2.9h-1.1L290.3,432.3z M289.7,431.4c1.5,0,2.4-0.7,2.4-2c0-1.3-0.9-1.9-2.4-1.9h-2.3v3.9H289.7z"/>
			<path id="XMLID_998_" d="M308.2,430.8c0,2.4-2,4.3-4.4,4.3c-2.5,0-4.4-1.9-4.4-4.3c0-2.4,2-4.3,4.4-4.3
				C306.2,426.5,308.2,428.4,308.2,430.8z M300.3,430.8c0,1.9,1.6,3.4,3.5,3.4c1.9,0,3.4-1.5,3.4-3.4c0-1.9-1.5-3.3-3.4-3.3
				C301.9,427.4,300.3,428.9,300.3,430.8z"/>
			<path id="XMLID_996_" d="M321.7,431.5c0,2.2-1.3,3.5-3.5,3.5c-2.2,0-3.6-1.3-3.6-3.5v-5h1v5c0,1.6,1,2.6,2.6,2.6
				c1.6,0,2.6-1,2.6-2.6v-5h1V431.5z"/>
			<path id="XMLID_994_" d="M335,435l-5.1-6.8v6.8h-1v-8.5h1l5.1,6.8v-6.8h1v8.5H335z"/>
			<path id="XMLID_991_" d="M346.8,426.5c2.5,0,4.4,1.8,4.4,4.2c0,2.4-1.9,4.2-4.4,4.2h-3.4v-8.5H346.8z M344.4,434.1h2.5
				c1.9,0,3.4-1.4,3.4-3.3c0-1.9-1.5-3.3-3.4-3.3h-2.4V434.1z"/>
		</g>
		<g id="XMLID_862_">
			<path id="XMLID_988_" d="M219,411l-0.1-0.4l-0.2-0.4l-0.1-0.4l-0.4-0.7l-0.2-0.2l-0.2-0.2l-0.1-0.2l-0.2-0.2l-0.1-0.2l-0.2-0.2
				l-0.2-0.2l-0.2-0.2l-0.2-0.2l-0.4-0.4l-0.1-0.2l-0.2-0.2l-0.1-0.1l-0.2-0.2l-0.5-0.6l-0.2-0.3l-0.6-0.9l-0.2-0.3l-0.1-0.3
				l-0.1-0.2l-0.1-0.3l-0.2-0.5l-0.1-0.3l0-0.2v-0.3l0-0.3v-0.4l0-0.4l0-0.3l0-0.3l0.1-0.5l0.1-0.3l0.1-0.3l0.1-0.2l0.1-0.3l0.1-0.2
				l0.2-0.2l0.2-0.2l0.4-0.4l0.2-0.2l0.2-0.1l0.5-0.2l0.3-0.1l0.7-0.3l0.3-0.1l0.5-0.1h0.6l0.5,0h0.3l0.4,0l0.3,0l0.6,0.1l0.3,0.1
				l0.2,0.1l0.3,0.1l0.6,0.4l0.2,0.2l0.2,0.2l0.1,0.2l0.2,0.2l0.2,0.2l0.2,0.3l0.2,0.3l0.1,0.3l0.1,0.3l0,0.3l0.1,0.4v0.9l0,0.3
				l-0.1,0.3l-0.1,0.2l-0.2,0.1l-0.2,0.1l-0.3,0l-0.2,0l-0.3-0.1l-0.2-0.1l-0.2-0.3l-0.1-0.3l0-0.3v-0.6l0-0.3l-0.1-0.2l-0.1-0.3
				l-0.1-0.2l-0.1-0.2l-0.2-0.2l-0.2-0.2l-0.2-0.1l-0.2-0.1l-0.2-0.1l-0.3-0.1l-0.2,0l-0.8-0.1h-0.3l-0.3,0l-0.5,0.2l-0.5,0.3
				l-0.2,0.2l-0.2,0.2l-0.1,0.2l-0.1,0.3l-0.1,0.2l-0.1,0.3l-0.1,0.3l-0.1,0.3l0,0.3v0.6l0,0.3l0.1,0.3l0.1,0.2l0.1,0.3l0.1,0.2
				l0.1,0.3l0.2,0.4l0.2,0.3l0.3,0.5l0.7,0.8l0.1,0.2l0.6,0.6l0.7,0.8l0.4,0.4l0.1,0.2l0.3,0.4l0.2,0.2l0.2,0.2l0.1,0.2l0.1,0.2
				l0.1,0.2l0.2,0.5l0.1,0.3l0.1,0.2l0.1,0.3l0.1,0.2l0.1,0.3l0,0.3l0.1,0.3l0,0.3l0,0.3l-0.1,0.5l-0.1,0.5l0,0.3l0,0.2l-0.1,0.3
				l-0.1,0.3l-0.1,0.2l-0.1,0.3l-0.4,0.6l-0.2,0.3l-0.2,0.2l-0.2,0.2l-0.1,0.1l-0.2,0.2l-0.1,0.1l-0.5,0.4l-0.5,0.2l-0.2,0.1
				l-0.3,0.1l-0.2,0.1l-0.2,0.1l-0.3,0.1l-0.3,0.1l-0.3,0l-0.2,0.1l-0.9,0.1h-0.7l-0.8-0.1h-0.2l-0.3-0.1l-0.4-0.1l-0.6-0.2
				l-0.2-0.1l-0.2-0.1l-0.3-0.2l-0.5-0.4l-0.5-0.5l-0.2-0.2l-0.3-0.4l-0.1-0.2l-0.1-0.2l-0.2-0.5l-0.1-0.3l-0.1-0.4l-0.1-0.4
				l-0.1-0.3l0-0.3v-0.6l0-0.2v-0.5l0-0.3l0.2-0.8l0.1-0.4l0.1-0.4l0.1-0.3l0.2-0.3l0.4-0.2h0.4l0.4,0.1l0.2,0.2l0.1,0.3v0.4l0,0.3
				l-0.1,0.3l-0.1,0.3l0,0.3l-0.1,0.3v0.8l0.1,0.8l0.1,0.3l0.3,0.8l0.1,0.2l0.2,0.3l0.1,0.1l0.2,0.2l0.2,0.2l0.2,0.2l0.2,0.1
				l0.2,0.1l0.2,0.1l0.3,0.1l0.2,0.1l0.3,0.1l0.3,0h0.4l0.8-0.1l0.4,0l0.3-0.1l0.5-0.2l0.2-0.1l0.2-0.1l0.2-0.3l0.3-0.3l0.2-0.2
				l0.2-0.3l0.2-0.3l0.1-0.3l0.1-0.4l0.1-0.4l0.1-0.4l0-0.3l0-0.4l0-0.4L219,411z"/>
			<path id="XMLID_985_" d="M232.2,415.8l-0.4,0.4l-0.5,0.3l-0.2,0.1l-0.5,0.3l-0.2,0.1l-0.5,0.2l-0.3,0.1l-0.5,0.1l-0.2,0.1
				l-0.3,0.1l-0.2,0h-0.3l-0.3,0h-0.3l-0.5-0.1l-0.3-0.1l-0.3-0.1l-0.2-0.1l-0.3-0.1l-0.2-0.1l-0.5-0.3l-0.2-0.2l-0.4-0.4l-0.1-0.2
				l-0.1-0.2l-0.1-0.2l-0.2-0.5l-0.1-0.5l-0.1-0.5l0-0.3l0-0.3v-0.8l0.1-0.3l0.1-0.2l0.1-0.3l0.1-0.5l0.1-0.3l0.1-0.3l0.1-0.2
				l0.1-0.3l0.1-0.3l0.1-0.2l0.1-0.3l0.1-0.4l0.2-0.4l0.1-0.2l0.2-0.2l0.1-0.2l0.2-0.2l0.3-0.5l0.2-0.2l0.4-0.4l0.4-0.4l0.2-0.1
				l0.2-0.2l0.3-0.2l0.3-0.2l0.3-0.2l0.2-0.1l0.3-0.1l0.2-0.1l0.3-0.1l0.2-0.1l0.3-0.1l0.3-0.1l0.3,0l0.3,0h0.7l0.5,0.1l0.4,0.1
				l0.3,0.1l0.3,0.1l0.2,0.1l0.5,0.3l0.3,0.2l0.2,0.2l0.1,0.2l0.2,0.2l0.2,0.2l0.4,0.6l0.1,0.3l0,0.3l0,0.2l0.1,0.5v1l-0.1,0.4
				l0,0.3l0,0.3l-0.2,0.9l-0.1,0.4l-0.1,0.3l-0.1,0.3l-0.1,0.3l-0.1,0.3l-0.2,0.3l-0.3,0.5l-0.1,0.3l0,0.2l0.2,0h0.2l0.3,0l0.2,0
				l0.3-0.1l0.3-0.1l0.2-0.1l0.5-0.3l0.2-0.2l0.4-0.4l0.4-0.4l0.1-0.2l0.1-0.2l0.1-0.2l0.2-0.5l0.3-0.5l0.1-0.2l0.2-0.3l0.3-0.1
				l0.4,0.1l0.2,0.3l0,0.3l-0.1,0.3l-0.4,0.7l-0.1,0.2l-0.3,0.5L238,413l-0.1,0.2l-0.2,0.2l-0.1,0.2l-0.2,0.2l-0.4,0.4l-0.2,0.2
				l-0.2,0.2l-0.2,0.1l-0.2,0.2l-0.2,0.1l-0.5,0.2l-0.3,0.1l-0.2,0.1l-1.1,0.1l-0.3,0l-0.3,0l-0.2-0.1l-0.2,0l-0.2,0.1l-0.2,0.1
				L232.2,415.8z M226.4,412.6l0,0.4l0,0.3l0,0.4l0.1,0.5l0.1,0.5l0.2,0.4l0.2,0.3l0.2,0.2l0.3,0.1l0.4,0.1h0.4l0.3,0l0.3-0.1
				l0.3-0.1l0.2-0.1l0.3-0.1l0.2-0.1l0.2-0.2l0.2-0.2l0.1-0.2v-0.2l-0.1-0.2l-0.1-0.2l-0.1-0.3l0.1-0.4l0.1-0.4l0.2-0.2l0.2-0.1
				l0.3,0l0.3,0.1l0.2,0.1l0.2,0l0.1-0.2l0.1-0.2l0.4-1.1l0.2-0.8l0.1-0.4l0.1-0.5l0.1-1l0-0.5l-0.1-0.5l-0.2-0.4l-0.2-0.3l-0.2-0.2
				l-0.4-0.1l-0.4-0.1l-0.4,0h-0.3l-0.2,0.1l-0.3,0.1l-0.3,0.2l-0.2,0.1l-0.3,0.2l-0.3,0.2l-0.2,0.2l-0.2,0.2l-0.1,0.2l-0.2,0.2
				l-0.1,0.2l-0.3,0.4l-0.1,0.2l-0.6,1.2l-0.1,0.3l-0.1,0.2l-0.2,0.5l-0.1,0.2l-0.1,0.3l0,0.3v0.3L226.4,412.6z"/>
			<path id="XMLID_983_" d="M241.3,417.4l-0.2,0l-0.3-0.1l-0.3-0.1l-0.4-0.1l-0.3-0.2l-0.3-0.1l-0.3-0.2l-0.3-0.3l-0.2-0.2l-0.2-0.2
				l-0.2-0.2l-0.1-0.2l-0.1-0.3l-0.1-0.4l-0.1-0.3l-0.1-0.3l-0.1-0.4l-0.1-0.4l0-0.3l0-0.3v-0.5l0-0.2l0-0.3l0-0.3l0.1-0.4l0.1-0.4
				l0.1-0.3l0.1-0.3l0.2-0.6l0.1-0.3l0.1-0.3l0.5-0.9l0.1-0.2l0.3-0.4l0.4-0.4l0.1-0.1l0.2-0.2l0.2-0.2l0.2-0.2l0.2-0.2l0.2-0.1
				l0.2-0.2l0.2-0.1l0.2-0.1l0.2-0.1l0.2-0.1l0.2-0.1l0.3-0.1l0.6-0.2l0.3-0.1l0.3-0.1l0.3,0l0.3,0h0.5l0.3,0l0.4,0.1l0.4,0.1
				l0.4,0.1l0.3,0.1l0.2,0.1l0.2,0.1l0.2,0.2l0.2,0.2l0.2,0.2l0.1,0.3l0.1,0.3l0.1,0.4l0,0.3l0,0.4l-0.1,0.4l-0.1,0.3l-0.1,0.2
				l-0.1,0.2l-0.2,0.3l-0.2,0.3l-0.2,0.2l-0.2,0.2l-0.2,0.1l-0.4,0.1h-0.5l-0.5-0.1l-0.3-0.2v-0.3l0.1-0.3l0.2-0.3l0.2-0.3l0.1-0.3
				l0.1-0.2l0.1-0.3v-0.2l-0.1-0.3l-0.2-0.3l-0.3-0.2l-0.3-0.1l-0.3,0l-0.3,0l-0.4,0.1l-0.4,0.1l-0.3,0.1L243,407l-0.2,0.2l-0.2,0.1
				l-0.2,0.2l-0.2,0.3l-0.2,0.2l-0.2,0.3l-0.3,0.3l-0.2,0.3l-0.1,0.3l-0.1,0.2l-0.1,0.2l-0.1,0.2l-0.1,0.3l-0.1,0.2l-0.1,0.3
				l-0.1,0.4l-0.1,0.4l-0.1,0.3l-0.1,0.4l0,0.4l0,0.3v0.4l0,0.5l0.1,0.4l0.1,0.3l0.3,0.6l0.2,0.2l0.2,0.2l0.2,0.2l0.3,0.1l0.4,0.1
				l0.3,0.1l0.4,0.1h0.6l0.7-0.1l0.3-0.1l0.3-0.1l0.3-0.1l0.3-0.2l0.3-0.1l0.7-0.4l0.3-0.2l0.3-0.2l0.4-0.4l0.4-0.4l0.2-0.2l0.4-0.4
				l0.3-0.4l0.2-0.3l0.1-0.2l0.2-0.3l0.2-0.3l0.1-0.3l0.2-0.4l0.3-0.2l0.4,0.1l0.2,0.3v0.3l-0.1,0.2l-0.1,0.2l-0.1,0.3l-0.1,0.3
				l-0.2,0.3l-0.2,0.3l-0.2,0.4l-0.4,0.6l-0.2,0.2l-0.1,0.2l-0.2,0.2l-0.5,0.6l-0.1,0.2l-0.2,0.2l-0.2,0.2l-0.4,0.3l-0.2,0.1
				l-0.2,0.1l-0.3,0.2l-0.2,0.1l-0.2,0.1l-0.2,0.1l-0.4,0.1l-0.4,0.1l-0.3,0.1l-0.4,0.1l-0.4,0.1l-0.5,0.1l-0.8,0.1l-0.5-0.1
				L241.3,417.4z"/>
			<path id="XMLID_980_" d="M256.1,410.9v0.3l-0.1,0.3l-0.2,0.5l-0.3,0.4l-0.1,0.3l-0.1,0.2l-0.2,0.3l-0.1,0.2l-0.1,0.3l-0.1,0.2
				l-0.1,0.2l-0.2,0.2l-0.1,0.2l-0.3,0.5l-0.5,0.6l-0.4,0.4l-0.2,0.2l-0.2,0.2l-0.2,0.2l-0.6,0.5l-0.2,0.1l-0.3,0.1l-0.3,0.1
				l-0.2,0.1l-0.5,0.1h-0.5l-0.3,0l-0.2-0.1l-0.3-0.1l-0.2-0.1l-0.2-0.2l-0.1-0.2l-0.1-0.2l-0.1-0.3l-0.1-0.2l-0.1-0.3l0-0.3v-0.3
				l0.1-0.5l0.1-0.3l0.1-0.3l0.1-0.5l0.1-0.2l0.1-0.3l0.1-0.3l0.1-0.2l0.3-0.8l0-0.2l0.1-0.3l0.1-0.3l0.1-0.3l0.1-0.2l0.2-0.5
				l0.1-0.4l0.1-0.4l0.2-0.5l0.1-0.3l0.1-0.2l0.1-0.3l0.1-0.3l0.1-0.2l0.2-0.8l0.1-0.3l0.1-0.4l0.1-0.4l0.1-0.3l0.1-0.2l0.2-0.1
				l0.3-0.1l0.2,0l0.3,0l0.5,0.1l0.5,0.2l0.1,0.2v0.3l-0.1,0.3l-0.1,0.4l-0.1,0.4l-0.2,0.5l-0.1,0.2l-0.1,0.3l-0.1,0.3l-0.1,0.4
				l-0.3,0.9l-0.1,0.3l-0.1,0.4l-0.2,0.6l-0.1,0.3l-0.1,0.2l-0.1,0.3l-0.2,0.5l-0.1,0.3l-0.2,0.7l-0.2,0.5l-0.1,0.3l-0.1,0.4
				l-0.1,0.5l-0.1,0.5l0.1,0.4l0.2,0.3l0.3,0.1l0.3,0l0.3-0.1l0.2-0.1l0.2-0.2l1-1l0.2-0.2l0.1-0.2l0.2-0.2l0.3-0.5l0.2-0.2l0.1-0.2
				l0.1-0.2l0.2-0.3l0.1-0.3l0.2-0.5l0.4-0.7l0.1-0.2l0.3-0.1l0.4,0.1L256.1,410.9z M251.3,401.8l0.1-0.2l0.2-0.2l0.2-0.1l0.3-0.1
				l0.3-0.1h0.3l0.3,0.1l0.2,0.1l0.2,0.2l0.2,0.2l0.1,0.2l0.1,0.3l0,0.3v0.3l-0.1,0.3l-0.1,0.2l-0.2,0.2l-0.2,0.2l-0.2,0.2l-0.3,0.1
				l-0.3,0.1l-0.3,0l-0.3-0.1l-0.5-0.3l-0.2-0.2l-0.1-0.2l-0.1-0.3l0-0.3l0-0.3l0.1-0.3L251.3,401.8z"/>
			<path id="XMLID_978_" d="M269.5,411.7l-0.1,0.1l-0.1,0.3l-0.1,0.2l-0.1,0.2l-0.1,0.3l-0.1,0.2l-0.3,0.5l-0.1,0.2l-0.1,0.2
				l-0.1,0.2l-0.1,0.2l-0.2,0.2l-0.2,0.2l-0.2,0.2l-0.3,0.4l-0.2,0.2l-0.2,0.2l-0.8,0.7l-0.2,0.1l-0.3,0.1l-0.3,0.1l-0.4,0.1
				l-0.3,0.1l-0.3,0.1h-0.3l-0.4,0l-0.4-0.1l-0.3-0.1l-0.2-0.1l-0.2-0.2l-0.2-0.3l-0.2-0.3l-0.1-0.3l-0.1-0.4l0-0.4v-0.3l0-0.4
				l0-0.4l-0.1-0.1l-0.1,0.2l-0.3,0.5l-0.3,0.4l-0.2,0.2l-0.1,0.2l-0.2,0.2l-0.1,0.2l-0.2,0.2l-0.2,0.2l-0.2,0.2l-0.2,0.1l-0.2,0.1
				l-0.3,0.2l-0.4,0.2l-0.5,0.1l-0.4,0.1l-0.5,0.1l-0.3,0l-0.4-0.1l-0.4-0.1l-0.3-0.1l-0.2-0.1l-0.2-0.1l-0.4-0.4l-0.1-0.2l-0.1-0.2
				l-0.2-0.3l-0.2-0.4l-0.1-0.4l0-0.3l-0.1-0.4l0-0.5v-0.4l0-0.3l0-0.4l0.1-0.4l0.1-0.3l0.1-0.4l0.1-0.4l0.1-0.3l0.1-0.2l0.1-0.3
				l0.7-1.4l0.1-0.2l0.1-0.2l0.1-0.2l0.3-0.4l0.2-0.2l0.4-0.4l0.1-0.1l0.2-0.2l0.4-0.4l0.3-0.3l0.3-0.2l0.4-0.3l0.2-0.1l0.2-0.1
				l0.3-0.1l0.4-0.1l0.3-0.2l0.3-0.1l0.4-0.1l0.4-0.1l0.3-0.1l0.7-0.1l0.3,0h0.4l0.6,0l0.7,0.1l0.6,0.1l0.3,0.1l0.3,0.1l1.2,0.5
				l0.2,0.2l0.2,0.1l0.2,0.2l0.2,0.2l0.1,0.3l-0.1,0.4l-0.3,0.4l-0.3,0.2l-0.2,0l-0.2-0.1l-0.2-0.2l-0.3-0.1l-0.2-0.1l-0.2-0.1
				l-0.2-0.1l-0.3-0.1l-0.2-0.1l-0.5-0.1l-0.3-0.1l-0.3-0.1h-0.6l-0.2,0l-0.3,0l-0.4,0.1l-0.7,0.3l-0.3,0.1l-0.3,0.2l-0.2,0.1
				l-0.2,0.1l-0.2,0.1l-0.2,0.2l-0.2,0.2l-0.1,0.1l-0.2,0.2l-0.2,0.2l-0.1,0.2l-0.4,0.4l-0.1,0.2l-0.1,0.2l-0.4,0.7l-0.1,0.2
				l-0.2,0.5l-0.1,0.3l-0.1,0.2l-0.2,0.8l-0.1,0.3l-0.1,0.8v0.8l0,0.3l0.1,0.3l0.1,0.2l0.1,0.2l0.2,0.2l0.3,0.1l0.4,0.1l0.4,0
				l0.3-0.1l0.5-0.2l0.4-0.4l0.2-0.2l0.2-0.2l0.2-0.2l0.1-0.2l0.2-0.2l0.1-0.2l0.3-0.4l0.1-0.2l0.4-0.7l0.2-0.3l0.2-0.4l0.1-0.2
				l0.4-0.8l0.1-0.3l0.1-0.2l0.1-0.3l0.1-0.2l0.1-0.3l0.1-0.3l0.2-0.6l0.1-0.3l0.1-0.3l0.2-0.3l0.3-0.1l0.3-0.1l0.3,0l0.3,0.1
				l0.5,0.2l0.2,0.1l0.1,0.2l0,0.3l-0.1,0.2l-0.1,0.3l-0.1,0.3l-0.1,0.5l-0.1,0.3l-0.1,0.2l-0.2,0.5l-0.1,0.3l0,0.2l-0.1,0.4
				l-0.1,0.3l-0.1,0.5l-0.1,0.4l-0.1,0.3l-0.1,0.3l-0.1,0.4l-0.1,0.5l0,0.4l0,0.4l0.1,0.2l0.3,0.1l0.4,0l0.4-0.1l0.3-0.1l0.4-0.3
				l0.2-0.2l0.4-0.4l0.4-0.4l0.3-0.4l0.1-0.2l0.2-0.2l0.1-0.2l0.5-0.7l0.1-0.2l0.1-0.2l0.6-1.2l0.3-0.1l0.4,0.1l0.2,0.3l0,0.3
				l-0.1,0.3L269.5,411.7z"/>
			<path id="XMLID_975_" d="M277.9,403.1l-0.1,0.3l-0.2,0.5l-0.1,0.3l-0.2,0.3l-0.1,0.2l-0.1,0.2l-0.1,0.2l-0.1,0.3l-0.1,0.2
				l-0.1,0.2l-0.2,0.3l-0.3,0.3l-0.3,0.3l-0.1,0.1l-0.2,0.2l-0.4,0.4l-0.2,0.2l-0.3,0.4l-0.2,0.2l-0.2,0.2l-0.3,0.2l-0.4,0.4
				l-0.2,0.1l-0.6,0.4l-0.2,0.1l-0.2,0.1l-0.3,0.3l-0.2,0.3l-0.1,0.2l-0.1,0.3l-0.1,0.5v0.2l-0.1,0.3l-0.1,0.3l0,0.3v0.6l0,0.4v0.6
				l0.1,0.3l0,0.2l0.1,0.3l0.1,0.3l0.1,0.2l0.2,0.2l0.2,0.1l0.2,0.1l0.3,0.1h0.5l0.2,0l0.3-0.1l0.4-0.1l0.3-0.2l0.2-0.2l0.3-0.2
				l0.3-0.3l0.4-0.3l0.2-0.2l0.2-0.2l0.1-0.1l0.2-0.2l0.1-0.2l0.2-0.3l0.1-0.1l0.2-0.3l0.2-0.4l0.1-0.2l0.2-0.3l0.1-0.3l0.1-0.3
				l0.3-0.4l0.3-0.2l0.4,0.1l0.2,0.3v0.3l-0.1,0.3l-0.1,0.2l-0.1,0.2l-0.1,0.3l-0.1,0.2l-0.1,0.2l-0.1,0.2l-0.1,0.2l-0.1,0.2
				l-0.2,0.3l-0.1,0.1l-0.1,0.3l-0.2,0.2l-0.3,0.4l-0.2,0.3l-0.1,0.1l-0.2,0.3l-0.2,0.2l-0.2,0.3l-0.3,0.2l-0.2,0.2l-0.2,0.1
				l-0.2,0.2l-0.3,0.1l-0.2,0.1l-0.3,0.1l-0.2,0.1l-0.2,0.1l-0.3,0.1l-0.4,0.1l-0.6,0.1l-0.4,0l-0.3,0h-0.2l-0.3,0l-0.3-0.1
				l-0.2-0.1l-0.3-0.1l-0.2-0.1l-0.2-0.1l-0.2-0.2l-0.2-0.2l-0.2-0.2l-0.1-0.2l-0.1-0.3l-0.1-0.2l-0.1-0.3l-0.1-0.3l0-0.3l-0.1-0.3
				v-0.2l-0.1-0.3l0-0.3v-0.3l0-0.3l0-0.3v-0.2l0-0.4l0.1-0.6l0-0.4v-0.3l0.1-0.3l0.1-0.3l0.2-1l0.1-0.4l0.1-0.5l0.1-0.1l0.1-0.4
				l0.1-0.2l0.1-0.4l0.1-0.4l0.1-0.3l0.1-0.4l0.1-0.4l0-0.2l0.1-0.4l0.1-0.4l0.1-0.2l0.1-0.4l0.1-0.4l0.1-0.3l0.3-0.8l0.1-0.2
				l0.2-0.4l0.2-0.5l0.1-0.4l0.1-0.3l0.1-0.2l0.1-0.3l0.2-0.5l0.1-0.3l0.1-0.3l0.2-0.3l0.2-0.4l0.4-0.5l0.2-0.2l0.4-0.4l0.1-0.1
				l0.2-0.2l0.2-0.1l0.5-0.3l0.3-0.2l0.3-0.1l0.3-0.1l0.3-0.1h0.5l0.3,0.1l0.2,0l0.3,0.1l0.2,0.1l0.4,0.4l0.1,0.2l0.2,0.3l0.1,0.4
				l0.1,0.3l0.1,0.4l0.1,0.4v0.5l-0.1,0.8l-0.1,0.5l-0.1,0.2l-0.1,0.3l-0.2,0.7l-0.1,0.2L277.9,403.1z M273,403.9l-0.4,1.2l-0.1,0.3
				l-0.1,0.3l-0.1,0.4l-0.2,0.6l-0.1,0.3l0,0.2l-0.1,0.3l-0.1,0.3l-0.1,0.3l0.1,0.2l0.2-0.1l0.3-0.2l1.2-1.2l0.1-0.2l0.1-0.2
				l0.2-0.3l0.1-0.1l0.2-0.3l0.2-0.3l0.2-0.3l0.2-0.3l0.1-0.2l0.1-0.2l0.1-0.2l0.2-0.5l0.1-0.3l0.1-0.2l0.1-0.3l0.1-0.3l0.1-0.3
				l0.1-0.3l0.1-0.3l0.1-0.3l0.1-0.3l0.1-0.3l0-0.3l0-0.3v-0.6l-0.1-0.2l-0.1-0.2l-0.2-0.1l-0.2-0.1l-0.3,0.1l-0.3,0.2l-0.2,0.2
				l-0.1,0.2l-0.1,0.2l-0.1,0.2l-0.3,0.4l-0.1,0.3l-0.1,0.3l-0.1,0.2l-0.1,0.3l-0.1,0.2l-0.1,0.3l-0.1,0.2l-0.1,0.3l-0.2,0.4
				l-0.1,0.3L273,403.9z"/>
			<path id="XMLID_973_" d="M303.5,396.8l0.4,0.1l0.3,0.1l0.2,0.1l0.4,0.4l0.3,0.4l0.1,0.2l0.1,0.3l0.1,0.3l0.1,0.6l0,0.3v0.6l0,0.3
				l-0.1,0.4l0,0.4l0,0.2l0,0l0.1-0.1l0.1-0.2l0.1-0.2l0.2-0.2l0.1-0.2l0.2-0.2l0.2-0.2l0.1-0.2l0.2-0.2l0.6-0.6l0.2-0.2l0.6-0.5
				l0.3-0.2l0.4-0.3l0.2-0.2l0.4-0.3l0.2-0.1l1-0.4l0.4-0.1l0.4-0.1h1.1l0.5,0.1l0.3,0.1l0.5,0.2l0.2,0.1l0.2,0.2l0.2,0.2l0.1,0.2
				l0.1,0.2l0.1,0.3l0.1,0.2l0.1,0.3l0,0.3l0,0.3v0.5l0,0.3v0.3l0,0.2l0,0.3l0,0.3l-0.1,0.3l-0.1,0.2l-0.1,0.3l-0.1,0.8l-0.1,0.3
				l-0.2,0.5l-0.1,0.3l-0.1,0.3l-0.1,0.2l-0.2,0.5l-0.1,0.2l-0.1,0.3l-0.2,0.5l-0.1,0.2l-0.2,0.5l-0.1,0.3l-0.1,0.2l-0.1,0.3
				l-0.1,0.3l-0.1,0.3l-0.1,0.2l-0.1,0.3l-0.1,0.3l-0.1,0.3l-0.1,0.2l-0.1,0.3l-0.1,0.3l-0.1,0.2l-0.1,0.3l-0.1,0.2l-0.2,0.8l0,0.3
				l-0.1,0.3l-0.1,0.4l-0.1,0.4l-0.1,0.3l-0.1,0.4l-0.1,0.4l0,0.3v0.5l0,0.3v0.3l0,0.3l0,0.3l0,0.3l0.1,0.2l0.1,0.3l0.1,0.3l0.1,0.2
				l0.2,0.3l0.2,0.2l0.2,0.2l0.2,0.2l0.2,0.1l0.2,0.3l0.1,0.4l-0.1,0.4l-0.3,0.4l-0.4,0.3l-0.4,0.1l-0.4-0.1l-0.3-0.1l-0.2-0.1
				l-0.2-0.1l-0.2-0.1l-0.2-0.1l-0.2-0.2l-0.2-0.3l-0.1-0.1l-0.2-0.3l-0.4-0.6l-0.1-0.3l-0.1-0.2l-0.1-0.3l0-0.3l0-0.2l-0.1-0.8
				v-0.5l0-0.3v-0.3l0-0.3l0.1-0.4l0.1-0.4V413l0.1-0.5l0.1-0.4l0.1-0.4l0.1-0.6l0.1-0.4l0.1-0.3l0-0.3l0.1-0.3l0.1-0.4l0.2-0.6
				l0.1-0.5l0.1-0.4l0.1-0.3l0.1-0.3l0.1-0.4l0.1-0.3l0.1-0.3l0.1-0.3l0.1-0.3l0.1-0.4l0.1-0.4l0.1-0.3l0.1-0.2l0.1-0.3l0.1-0.2
				l0.2-0.5l0.1-0.3l0.1-0.3l0.1-0.3l0.1-0.2l0.1-0.3l0.1-0.3l0.1-0.5l0.1-0.3l0.1-0.5v-0.6l-0.1-0.5l-0.1-0.3l-0.1-0.2l-0.2-0.2
				l-0.2-0.2l-0.2-0.1l-0.3,0l-0.4,0.1l-0.4,0.1l-0.3,0.1L310,399l-0.4,0.3l-0.2,0.1l-0.2,0.1l-0.4,0.4l-0.4,0.4l-0.2,0.1l-0.4,0.4
				l-0.1,0.2l-0.2,0.2l-0.3,0.4l-0.2,0.2l-0.1,0.2l-0.2,0.2l-0.4,0.4l-0.3,0.5l-0.1,0.1l-0.2,0.2l-0.3,0.4l-0.2,0.3l-0.2,0.4
				l-0.2,0.3l-0.1,0.3l-0.1,0.2l-0.2,0.5l-0.1,0.3l-0.1,0.4l-0.1,0.4l-0.3,0.8l-0.1,0.2l-0.1,0.3l-0.2,0.8l0,0.2l-0.1,0.3l-0.1,0.3
				l-0.1,0.3l-0.1,0.2l-0.1,0.3L303,411l-0.1,0.3l-0.1,0.4l-0.1,0.3l-0.1,0.3l-0.1,0.4l-0.1,0.4l-0.1,0.3l-0.1,0.5l-0.1,0.3
				l-0.1,0.2l-0.1,0.5l-0.1,0.5l-0.1,0.3l-0.1,0.2l-0.2,0.5l-0.1,0.4l-0.3,0.4l-0.4,0.3l-0.5,0.1l-0.5,0l-0.4-0.1l-0.4-0.1l-0.1-0.2
				l0-0.2l0.1-0.3l0.1-0.4l0.1-0.4l0.1-0.3l0.1-0.3l0.1-0.2l0.1-0.3l0.1-0.2l0.1-0.3l0.1-0.3l0.1-0.3l0.1-0.3l0.1-0.2l0.1-0.3
				l0.1-0.4l0.1-0.4l0.1-0.3l0.1-0.3l0.1-0.2l0.1-0.3l0.1-0.3l0.1-0.2l0.2-0.8l0.1-0.3l0.1-0.3l0.1-0.4l0.1-0.4l0.1-0.3l0.1-0.4
				l0.1-0.4l0.1-0.3l0.2-0.5l0.1-0.2l0.1-0.5l0.1-0.3l0.1-0.3l0.1-0.2l0.3-1.3l0.1-0.2l0.2-0.5l0.1-0.2l0.1-0.3l0.1-0.3l0.1-0.5
				l0.1-0.3l0.1-0.3l0.1-0.2l0-0.3V400l0-0.3l-0.1-0.3l-0.1-0.3l-0.1-0.2l-0.2-0.2l-0.2-0.1l-0.2-0.1l-0.3,0l-0.3,0l-0.3,0l-0.3,0.1
				l-0.3,0.2l-0.3,0.1l-0.2,0.1l-0.4,0.4l-0.2,0.2l-0.3,0.2l-0.2,0.2l-0.2,0.2l-0.5,0.5l-0.2,0.2l-0.3,0.4l-0.2,0.2l-0.1,0.1
				l-0.2,0.3l-0.2,0.3l-0.4,0.5l-0.2,0.3l-0.2,0.2L296,404l-0.3,0.4l-0.2,0.3l-0.1,0.3l-0.1,0.2l-0.1,0.2l-0.1,0.4l-0.1,0.4
				l-0.1,0.3l-0.1,0.4l-0.2,0.6l-0.1,0.4l-0.1,0.5l-0.1,0.4l-0.3,1l-0.1,0.3l-0.1,0.4l-0.1,0.4l-0.1,0.3l-0.1,0.2l-0.1,0.3l-0.1,0.4
				l-0.1,0.4l-0.2,0.5l-0.1,0.3l-0.2,0.7l-0.1,0.5l-0.1,0.3l-0.1,0.2l-0.1,0.3l-0.1,0.2l-0.1,0.3l-0.1,0.2l-0.1,0.3l-0.1,0.2
				l-0.1,0.3l-0.1,0.4l-0.2,0.4l-0.4,0.2l-0.5,0.1l-0.5-0.1l-0.4-0.2l-0.3-0.3l-0.1-0.3l0-0.3l0.2-0.5l0.1-0.2l0.1-0.3l0.1-0.5
				l0.1-0.2l0.1-0.3l0.1-0.3l0.1-0.1l0.1-0.3l0.1-0.2l0.1-0.3l0.1-0.3l0.1-0.2l0.1-0.3l0.1-0.2l0.1-0.3l0.1-0.3l0.1-0.3l0.1-0.4
				l0.1-0.4l0.1-0.3l0.2-0.5l0.1-0.2l0.1-0.3l0.2-0.8l0.1-0.2l0.1-0.3l0.1-0.3l0.1-0.3l0.1-0.2l0.1-0.3l0.2-0.5l0.1-0.2l0.1-0.3
				l0.1-0.3l0.1-0.2l0.1-0.5l0.2-0.5l0.1-0.2l0.1-0.3l0.1-0.3l0.1-0.3l0.1-0.2l0.2-0.8l0.1-0.3l0.1-0.3l0.1-0.2l0.2-0.5l0.1-0.2
				l0.1-0.3l0.1-0.3l0-0.2l-0.1,0L294,400l-1,0.9l-0.4,0.3l-0.2,0.1l-0.5,0.2l-0.2,0.1l-0.2,0.1l-0.2,0.1l-0.3,0.1l-0.2,0.1
				l-0.2,0.1l-0.2,0.1l-0.3,0.1l-0.3,0.2l-0.3,0.1L289,403l-0.2,0.1l-0.3,0.1l-0.1,0.1l-0.3,0.2l-0.2,0.1l-0.4,0.4l-0.1,0.2
				l-0.1,0.2l-0.1,0.5l0,0.3v0.6l0.1,0.3l0.1,0.2l0.2,0.2l0.2,0.2l0.3,0.1l0.3,0.1l0.3,0.2l0.1,0.4l-0.1,0.4l-0.2,0.3l-0.2,0.1h-0.3
				l-0.2,0l-0.3-0.1l-0.4-0.1l-0.4-0.1l-0.2-0.1l-0.2-0.1l-0.2-0.1l-0.2-0.2l-0.3-0.3l-0.2-0.3L285,407l-0.1-0.3l-0.1-0.3l-0.1-0.4
				l-0.1-0.4v-0.6l0.1-0.2l0.1-0.3l0.2-0.6l0.2-0.3l0.1-0.3l0.2-0.3l0.2-0.3l0.2-0.2l0.2-0.1l0.2-0.2l0.2-0.1l0.3-0.1l0.3-0.1
				l0.3-0.2l0.3-0.1l0.3-0.1l0.6-0.2l0.5-0.2l0.7-0.3l0.6-0.3l0.3-0.1l0.3-0.1l0.2-0.1l0.5-0.3l0.3-0.2l0.3-0.1l0.2-0.2l0.2-0.1
				l0.2-0.2l0.4-0.4l0.2-0.1l0.2-0.2l0.2-0.1l0.2-0.2l0.5-0.6l0.1-0.2l0.2-0.2l0.2-0.1l0.3-0.1h0.3l0.3,0l0.3,0.1l0.2,0.1l0.2,0.2
				l0.1,0.2l0,0.3l-0.2,0.8l-0.1,0.2l-0.1,0.3l-0.1,0.2l-0.1,0.3l-0.1,0.3l-0.1,0.3l-0.1,0.2l-0.2,0.8l-0.1,0.2l0,0.1l0.1-0.1
				l0.2-0.2l0.1-0.2l0.2-0.3l0.4-0.4l0.2-0.2l0.2-0.3l0.3-0.3l0.2-0.2l0.4-0.4l0.2-0.2l0.2-0.2l0.2-0.2l0.2-0.2l0.2-0.1l0.2-0.2
				l0.3-0.1l0.1-0.1l0.3-0.2l0.2-0.1l0.2-0.1l0.3-0.1l0.4-0.1l0.3-0.1l0.3-0.1l0.3,0h1L303.5,396.8z"/>
			<path id="XMLID_896_" d="M324.9,410.2l-0.1,0.2l-0.4,0.4l-0.4,0.4l-0.2,0.1l-0.3,0.1l-0.2,0.1l-0.3,0.2l-0.2,0.1l-0.3,0.1
				l-0.3,0.1l-0.3,0.1l-0.3,0l-0.3,0.1l-0.3,0l-0.4,0.1l-0.3,0h-0.3l-0.5-0.1l-0.5,0l-0.3,0l-0.8-0.2h-0.2l-0.1,0.1l-0.1,0.2v0.3
				l0,0.3v0.5l0,0.3l0.1,0.2l0.2,0.5l0.3,0.5l0.2,0.2l0.2,0.2l0.5,0.3l0.3,0.1l0.3,0.1l0.2,0l0.3,0.1l0.3,0h0.3l0.3,0l0.8-0.1
				l0.3-0.1l0.3-0.1l0.2-0.1l0.5-0.2l0.5-0.2l0.4-0.3l0.2-0.1l0.2-0.2l0.4-0.4l0.4-0.4l0.1-0.2l0.2-0.2l0.3-0.4l0.1-0.2l0.1-0.2
				l0.1-0.2l0.1-0.2l0.1-0.2l0.1-0.2l0.1-0.3l0.1-0.2l0.1-0.2l0.2-0.1h0.3l0.3,0.2l0.1,0.3l0,0.3l-0.1,0.3l-0.1,0.3l-0.2,0.3
				l-0.1,0.3l-0.2,0.3l-0.2,0.3l-0.3,0.5l-0.1,0.2l-0.2,0.3l-0.3,0.4l-0.2,0.2l-0.2,0.2l-0.2,0.2l-0.2,0.2l-0.1,0.1l-0.2,0.2
				l-0.2,0.2l-0.4,0.4l-0.3,0.2l-0.3,0.2l-0.5,0.3l-0.7,0.3l-0.2,0.1l-0.3,0.1l-0.4,0.1l-0.4,0.1l-0.6,0.1l-0.4,0l-0.3,0h-0.3
				l-1.1-0.1l-0.2-0.1l-0.3-0.1l-0.3-0.1l-0.2-0.1l-0.5-0.3l-0.2-0.1l-0.2-0.2l-0.2-0.2l-0.1-0.1l-0.2-0.2l-0.2-0.2l-0.1-0.2
				l-0.1-0.2l-0.1-0.3l-0.1-0.2l-0.1-0.3l-0.1-0.3l-0.1-0.2l-0.1-0.3l-0.1-0.8v-0.6l0-0.3v-0.3l0.2-0.8l0.1-0.2l0.1-0.3l0.1-0.3
				l0.1-0.3l0.1-0.3l0.1-0.3l0.1-0.4l0.1-0.3l0.2-0.3l0.2-0.3l0.1-0.3l0.1-0.2l0.2-0.2l0.4-0.5l0.4-0.4l0.2-0.2l0.3-0.2l0.3-0.2
				l0.3-0.2l0.3-0.2l0.3-0.1l0.3-0.1l0.4-0.2l0.6-0.2l0.5-0.1l0.4-0.1h0.6l0.4,0.1l0.5,0.1l0.4,0.1l0.3,0.1l0.3,0.1l0.2,0.1l0.2,0.1
				l0.4,0.4l0.2,0.2l0.2,0.3l0.1,0.4l0.1,0.3l0.1,0.3l0,0.3v0.4l0,0.4l0,0.3l-0.1,0.4l-0.1,0.4l-0.1,0.3l-0.1,0.1l-0.1,0.3
				L324.9,410.2z M321.3,406.6l-0.4,0.2l-0.4,0.2l-0.2,0.1l-0.4,0.4l-0.3,0.3l-0.2,0.3l-0.2,0.2l-0.2,0.3l-0.2,0.3l-0.1,0.3
				l-0.2,0.3l-0.1,0.4l-0.1,0.3l-0.1,0.2l0,0.2l0.1,0.1l0.4,0.1l0.6,0l0.3,0h0.8l0.3-0.1l0.3-0.1l0.3-0.1l0.2-0.1l0.3-0.1l0.2-0.1
				l0.2-0.2l0.2-0.2l0.2-0.2l0.2-0.2l0.1-0.2l0.1-0.2l0.1-0.3l0.2-0.5l0.1-0.3l0-0.3l0-0.3l-0.1-0.3l-0.2-0.2l-0.2-0.2l-0.3-0.1
				l-0.3-0.1l-0.3,0l-0.3,0.1L321.3,406.6z"/>
			<path id="XMLID_885_" d="M328.4,407.8l0.2-0.2l0.4-0.4l0.6-0.5l0.2-0.1l0.2-0.2l0.2-0.1l0.2-0.1l0.3-0.1l0.4-0.2l0.3-0.1l0.5-0.2
				l0.2-0.1l0.5-0.1l0.3,0l0.3,0l0.5-0.1h0.7l0.4,0.1l0.3,0.1l0.2,0l0.2-0.1l0.1-0.2l0.1-0.3l0.2-0.5l0.1-0.2l0.1-0.3l0.2-0.5
				l0.1-0.3l0.1-0.2l0.1-0.3l0.1-0.2l0.2-0.5l0.1-0.2l0.3-0.9l0.1-0.4l0.2-0.5l0.1-0.2l0.1-0.3l0.1-0.2l0.2-0.5l0.1-0.2l0.3-0.5
				l0.1-0.2l0.3-0.2l0.3-0.1h0.3l0.3,0l0.3,0.1l0.2,0.1l0.3,0.1l0.2,0.1l0.1,0.2l-0.1,0.2l-0.1,0.3l-0.1,0.3l-0.1,0.2l-0.1,0.2
				l-0.1,0.3l-0.1,0.4l-0.1,0.4l-0.1,0.3l-0.4,0.9l-0.1,0.4l-0.1,0.4l-0.1,0.3l-0.1,0.2l-0.2,0.6l-0.1,0.4l-0.1,0.3l-0.3,1l-0.1,0.3
				l-0.1,0.2l-0.1,0.3l-0.1,0.2l-0.1,0.3l-0.1,0.2l-0.1,0.3l-0.1,0.2l-0.1,0.3l-0.1,0.3l-0.1,0.2l-0.1,0.3l-0.1,0.3l-0.1,0.2
				l-0.1,0.3l-0.1,0.3l-0.1,0.4l-0.1,0.4l-0.1,0.2l-0.1,0.3l-0.1,0.3l-0.1,0.4l-0.1,0.4l-0.2,0.8l0,0.3l-0.1,0.3l-0.1,0.4l-0.1,0.4
				l0,0.3l-0.1,0.3l0,0.3v0.3l0,0.3l0,0.4l0.1,0.4l0.1,0.3l0.2,0.2l0.2,0.1l0.3,0l0.2-0.1l0.3-0.1l0.2-0.1l0.5-0.5l0.2-0.2l0.3-0.4
				l0.3-0.5l0.4-0.6l0.1-0.2l0.1-0.2l0.1-0.3l0.3-0.6l0.1-0.3l0.1-0.2l0.1-0.3l0.1-0.3l0.3-0.2l0.4,0.1l0.2,0.3v0.4l-0.1,0.4
				l-0.1,0.3l-0.2,0.3l-0.2,0.4l-0.1,0.2l-0.4,0.7l-0.2,0.3l-0.4,0.6l-0.3,0.5l-0.1,0.2l-0.2,0.2l-0.1,0.2l-0.2,0.2l-0.2,0.2
				l-0.2,0.2l-0.1,0.1l-0.2,0.2l-0.2,0.2l-0.2,0.1l-0.2,0.1l-0.2,0.1l-0.8,0.3l-0.3,0.1H336l-0.3,0l-0.3,0l-0.3-0.1l-0.2-0.1
				l-0.2-0.1l-0.2-0.1l-0.2-0.2l-0.3-0.4l-0.1-0.2l-0.1-0.3l-0.1-0.2l-0.1-0.8v-0.6l-0.1,0l-0.1,0.2l-0.1,0.2l-0.3,0.5l-0.1,0.2
				l-0.2,0.2l-0.3,0.4l-0.2,0.2l-0.6,0.5l-0.3,0.2l-0.3,0.2l-0.3,0.2l-0.2,0.1l-0.3,0.1l-0.7,0.1l-0.3,0.1l-0.3,0l-0.2,0l-0.3,0
				l-0.3-0.1l-0.2-0.1l-0.3-0.1l-0.2-0.1l-0.2-0.2l-0.3-0.3l-0.3-0.2l-0.1-0.2l-0.1-0.2l-0.1-0.3l-0.2-0.5l-0.1-0.3l0-0.3l0-0.4V414
				l0-0.3v-0.3l0-0.3l0-0.4l0.1-0.4l0.1-0.3l0.1-0.3l0-0.2l0.1-0.3l0.1-0.3l0.3-0.7l0.1-0.3l0.2-0.5l0.2-0.3l0.1-0.3l0.2-0.3
				l0.1-0.1l0.2-0.2l0.3-0.4L328.4,407.8z M334.4,406.7l-0.6,0h-0.3l-0.3,0.1l-0.3,0.1l-0.2,0.1l-0.3,0.1l-0.3,0.1l-0.3,0.1
				l-0.2,0.1l-0.2,0.1l-0.2,0.2l-0.2,0.2l-0.4,0.4l-0.2,0.2l-0.2,0.2l-0.4,0.4l-0.1,0.2l-0.1,0.3l-0.4,0.6l-0.1,0.2l-0.1,0.2
				l-0.1,0.3l-0.1,0.2l-0.1,0.3l-0.2,0.7l-0.1,0.3l-0.1,0.4l0,0.4l0,0.3l0.1,0.4l0.1,0.5l0.1,0.4l0.1,0.3l0.1,0.2l0.2,0.2l0.2,0.2
				l0.3,0.1l0.4,0.1l0.4,0l0.3-0.1l0.2-0.1l0.3-0.1l0.2-0.1l0.4-0.4l0.2-0.2l0.2-0.2l0.2-0.2l0.1-0.2l0.1-0.2l0.2-0.3l0.2-0.4
				l0.2-0.3l0.1-0.2l0.1-0.3l0.1-0.2l0.1-0.3l0.1-0.4l0.1-0.3l0.1-0.3l0.1-0.2l0.4-1.2l0.1-0.4l0.2-0.9l0.1-0.4l0.1-0.3l0.1-0.3
				l-0.1-0.3l-0.2-0.1H334.4z"/>
			<path id="XMLID_879_" d="M347.2,410.9v0.3l-0.1,0.3l-0.2,0.5l-0.3,0.4l-0.1,0.3l-0.1,0.2l-0.2,0.3l-0.1,0.2l-0.1,0.3l-0.1,0.2
				l-0.1,0.2l-0.2,0.2l-0.1,0.2l-0.3,0.5l-0.5,0.6l-0.4,0.4l-0.2,0.2l-0.2,0.2l-0.2,0.2l-0.6,0.5l-0.2,0.1l-0.3,0.1l-0.3,0.1
				l-0.2,0.1l-0.5,0.1h-0.5l-0.3,0l-0.2-0.1l-0.3-0.1l-0.2-0.1l-0.2-0.2l-0.1-0.2l-0.1-0.2l-0.1-0.3l-0.1-0.2l-0.1-0.3l0-0.3v-0.3
				l0.1-0.5l0.1-0.3l0.1-0.3l0.1-0.5l0.1-0.2l0.1-0.3l0.1-0.3l0.1-0.2l0.3-0.8l0-0.2l0.1-0.3l0.1-0.3l0.1-0.3l0.1-0.2l0.2-0.5
				l0.1-0.4l0.1-0.4l0.2-0.5l0.1-0.3l0.1-0.2l0.1-0.3l0.1-0.3l0.1-0.2l0.2-0.8l0.1-0.3l0.1-0.4l0.1-0.4l0.1-0.3l0.1-0.2l0.2-0.1
				l0.3-0.1l0.2,0l0.3,0l0.5,0.1l0.5,0.2l0.1,0.2v0.3L344,406l-0.1,0.4l-0.1,0.4l-0.2,0.5l-0.1,0.2l-0.1,0.3l-0.1,0.3l-0.1,0.4
				l-0.3,0.9l-0.1,0.3l-0.1,0.4l-0.2,0.6l-0.1,0.3l-0.1,0.2l-0.1,0.3l-0.2,0.5l-0.1,0.3l-0.2,0.7l-0.2,0.5l-0.1,0.3l-0.1,0.4
				l-0.1,0.5l-0.1,0.5l0.1,0.4l0.2,0.3l0.3,0.1l0.3,0l0.3-0.1l0.2-0.1l0.2-0.2l1-1l0.2-0.2l0.1-0.2l0.2-0.2l0.3-0.5l0.2-0.2l0.1-0.2
				l0.1-0.2l0.2-0.3l0.1-0.3l0.2-0.5l0.4-0.7l0.1-0.2l0.3-0.1l0.4,0.1L347.2,410.9z M342.5,401.8l0.1-0.2l0.2-0.2l0.2-0.1l0.3-0.1
				l0.3-0.1h0.3l0.3,0.1l0.2,0.1l0.2,0.2l0.2,0.2l0.1,0.2l0.1,0.3l0,0.3v0.3l-0.1,0.3l-0.1,0.2l-0.2,0.2l-0.2,0.2l-0.2,0.2L344,404
				l-0.3,0.1l-0.3,0l-0.3-0.1l-0.5-0.3l-0.2-0.2l-0.1-0.2l-0.1-0.3l0-0.3l0-0.3l0.1-0.3L342.5,401.8z"/>
			<path id="XMLID_868_" d="M360.7,411.7l-0.1,0.1l-0.1,0.3l-0.1,0.2l-0.1,0.2l-0.1,0.3l-0.1,0.2l-0.3,0.5l-0.1,0.2l-0.1,0.2
				l-0.1,0.2l-0.1,0.2l-0.2,0.2l-0.2,0.2l-0.2,0.2l-0.3,0.4l-0.2,0.2l-0.2,0.2l-0.8,0.7l-0.2,0.1l-0.3,0.1l-0.3,0.1l-0.4,0.1
				l-0.3,0.1l-0.3,0.1h-0.3l-0.4,0l-0.4-0.1l-0.3-0.1l-0.2-0.1l-0.2-0.2l-0.2-0.3l-0.2-0.3l-0.1-0.3l-0.1-0.4l0-0.4v-0.3l0-0.4
				l0-0.4l-0.1-0.1l-0.1,0.2l-0.3,0.5l-0.3,0.4l-0.2,0.2l-0.1,0.2l-0.2,0.2l-0.1,0.2l-0.2,0.2l-0.2,0.2l-0.2,0.2l-0.2,0.1l-0.2,0.1
				l-0.3,0.2l-0.4,0.2l-0.5,0.1l-0.4,0.1l-0.5,0.1l-0.3,0l-0.4-0.1l-0.4-0.1l-0.3-0.1l-0.2-0.1l-0.2-0.1l-0.4-0.4l-0.1-0.2l-0.1-0.2
				l-0.2-0.3l-0.2-0.4l-0.1-0.4l0-0.3l-0.1-0.4l0-0.5v-0.4l0-0.3l0-0.4l0.1-0.4l0.1-0.3l0.1-0.4l0.1-0.4l0.1-0.3l0.1-0.2l0.1-0.3
				l0.7-1.4l0.1-0.2l0.1-0.2l0.1-0.2l0.3-0.4l0.2-0.2l0.4-0.4l0.1-0.1l0.2-0.2l0.4-0.4l0.3-0.3l0.3-0.2l0.4-0.3l0.2-0.1l0.2-0.1
				l0.3-0.1l0.4-0.1l0.3-0.2l0.3-0.1l0.4-0.1l0.4-0.1l0.3-0.1l0.7-0.1l0.3,0h0.4l0.6,0l0.7,0.1l0.6,0.1l0.3,0.1l0.3,0.1l1.2,0.5
				l0.2,0.2l0.2,0.1l0.2,0.2l0.2,0.2l0.1,0.3l-0.1,0.4l-0.3,0.4l-0.3,0.2l-0.2,0l-0.2-0.1l-0.2-0.2l-0.3-0.1l-0.2-0.1l-0.2-0.1
				l-0.2-0.1l-0.3-0.1l-0.2-0.1l-0.5-0.1l-0.3-0.1l-0.3-0.1h-0.6l-0.2,0l-0.3,0l-0.4,0.1l-0.7,0.3L352,407l-0.3,0.2l-0.2,0.1
				l-0.2,0.1l-0.2,0.1l-0.2,0.2l-0.2,0.2l-0.1,0.1l-0.2,0.2l-0.2,0.2l-0.1,0.2l-0.4,0.4l-0.1,0.2l-0.1,0.2l-0.4,0.7l-0.1,0.2
				l-0.2,0.5l-0.1,0.3l-0.1,0.2l-0.2,0.8l-0.1,0.3l-0.1,0.8v0.8l0,0.3l0.1,0.3l0.1,0.2l0.1,0.2l0.2,0.2l0.3,0.1l0.4,0.1l0.4,0
				l0.3-0.1l0.5-0.2l0.4-0.4l0.2-0.2l0.2-0.2l0.2-0.2l0.1-0.2l0.2-0.2l0.1-0.2l0.3-0.4l0.1-0.2l0.4-0.7l0.2-0.3l0.2-0.4l0.1-0.2
				l0.4-0.8l0.1-0.3l0.1-0.2l0.1-0.3l0.1-0.2l0.1-0.3l0.1-0.3l0.2-0.6l0.1-0.3l0.1-0.3l0.2-0.3l0.3-0.1l0.3-0.1l0.3,0l0.3,0.1
				l0.5,0.2l0.2,0.1l0.1,0.2l0,0.3l-0.1,0.2l-0.1,0.3l-0.1,0.3l-0.1,0.5l-0.1,0.3l-0.1,0.2l-0.2,0.5l-0.1,0.3l0,0.2l-0.1,0.4
				l-0.1,0.3l-0.1,0.5l-0.1,0.4l-0.1,0.3l-0.1,0.3l-0.1,0.4l-0.1,0.5l0,0.4l0,0.4l0.1,0.2l0.3,0.1l0.4,0l0.4-0.1l0.3-0.1l0.4-0.3
				l0.2-0.2l0.4-0.4l0.4-0.4l0.3-0.4l0.1-0.2l0.2-0.2l0.1-0.2l0.5-0.7l0.1-0.2l0.1-0.2l0.6-1.2l0.3-0.1l0.4,0.1l0.2,0.3l0,0.3
				l-0.1,0.3L360.7,411.7z"/>
		</g>
	</g>
</g>
<g id="Layer_2" class="st0">
	<g id="XMLID_103_" class="st1">
		<path id="XMLID_111_" class="st2" d="M265.5,308.7L265.5,308.7c-10.5,0-19-8.5-19-19v0c0-10.5,8.5-19,19-19h0c10.5,0,19,8.5,19,19
			v0C284.5,300.2,276,308.7,265.5,308.7z"/>
	</g>
	<g id="XMLID_1_" class="st1">
		<path id="XMLID_8_" class="st2" d="M197.8,308.7L197.8,308.7c-10.5,0-19-8.5-19-19v0c0-10.5,8.5-19,19-19h0c10.5,0,19,8.5,19,19v0
			C216.9,300.2,208.3,308.7,197.8,308.7z"/>
	</g>
	<g id="XMLID_1707_" class="st1">
		<path id="XMLID_1713_" class="st2" d="M135.7,313L135.7,313c-10.5,0-19-8.5-19-19v0c0-10.5,8.5-19,19-19l0,0c10.5,0,19,8.5,19,19
			v0C154.8,304.5,146.3,313,135.7,313z"/>
	</g>
	<g id="XMLID_2_" class="st1">
		<path id="XMLID_4_" class="st4" d="M208.3,289.2c-0.1-5.5-4.7-9.9-10.2-9.9c-5.5,0-10,4.3-10.2,9.7c0,0.1,0,0.3,0,0.4
			c0,1.9,0.5,3.7,1.5,5.3l-1.8,5.5l5.7-1.8c1.5,0.8,3.2,1.3,5,1.3c5.7,0,10.2-4.6,10.2-10.2C208.3,289.4,208.3,289.3,208.3,289.2z
			 M198,298c-1.8,0-3.4-0.5-4.7-1.4l-3.3,1.1l1.1-3.2c-1-1.4-1.6-3.1-1.6-5c0-0.3,0-0.6,0-0.8c0.4-4.3,4.1-7.7,8.6-7.7
			c4.5,0,8.2,3.5,8.6,7.9c0,0.2,0,0.4,0,0.7C206.6,294.2,202.8,298,198,298z"/>
		<path id="XMLID_3_" class="st4" d="M202.7,291.5c-0.3-0.1-1.5-0.7-1.7-0.8c-0.2-0.1-0.4-0.1-0.6,0.1c-0.2,0.2-0.7,0.8-0.8,1
			c-0.1,0.2-0.3,0.2-0.5,0.1c-0.2-0.1-1.1-0.4-2-1.2c-0.7-0.7-1.3-1.5-1.4-1.7c-0.1-0.2,0-0.4,0.1-0.5c0.1-0.1,0.2-0.3,0.4-0.4
			c0,0,0.1-0.1,0.1-0.1c0.1-0.1,0.1-0.2,0.2-0.3c0.1-0.2,0-0.3,0-0.4c-0.1-0.1-0.6-1.4-0.8-1.9c-0.2-0.5-0.4-0.4-0.6-0.4
			c-0.1,0-0.3,0-0.5,0c-0.2,0-0.4,0.1-0.7,0.3c-0.2,0.2-0.9,0.9-0.9,2.1c0,0.3,0.1,0.6,0.1,0.8c0.3,0.9,0.8,1.6,0.9,1.7
			c0.1,0.2,1.7,2.8,4.3,3.8c2.6,1,2.6,0.7,3,0.6c0.5,0,1.5-0.6,1.7-1.2c0.2-0.6,0.2-1.1,0.1-1.2C203.1,291.7,203,291.6,202.7,291.5z
			"/>
	</g>
	<g class="st1">
		<path class="st3" d="M267.7,298.2l0,2l-0.8,0c-0.2,0-0.4,0-0.5,0c-3.1,0-5.7-1-7.7-2.9c-2.1-1.9-3.1-4.4-3.1-7.5
			c0-3.4,1.1-6.1,3.4-8c1.9-1.6,4.1-2.5,6.8-2.5c2.8,0,5.2,0.9,7,2.8c1.7,1.7,2.6,4,2.6,6.6c0,1.6-0.4,3-1.1,4.2c-0.8,1.3-2,2-3.6,2
			c-0.7,0-1.4-0.2-1.9-0.6c-0.5-0.4-0.9-0.8-1-1.4c-0.7,1.3-1.8,2-3.3,2c-1.2,0-2.2-0.4-2.9-1.3c-0.8-0.9-1.2-2-1.2-3.3
			c0-1.8,0.5-3.2,1.6-4.2c0.9-0.8,1.9-1.2,3-1.2c0.9,0,1.7,0.2,2.3,0.7l0.3-0.8h2v6.1c0,1.4,0.4,2.1,1.3,2.1c1.4,0,2.1-1.4,2.1-4.2
			c0-2.5-0.9-4.5-2.7-5.9c-1.3-1-2.9-1.5-4.6-1.5c-2.4,0-4.3,0.8-5.8,2.5c-1.4,1.5-2,3.5-2,5.9c0,3.1,1,5.4,3,6.9
			c1.5,1.1,3.2,1.6,5.2,1.6c0.2,0,0.4,0,0.6,0L267.7,298.2z M267.2,287.4c-0.5-0.4-1.1-0.6-1.9-0.6c-1.5,0-2.2,1-2.2,3.1
			c0,2,0.7,3,2.1,3c1.4,0,2.1-1,2.1-2.9V287.4z"/>
	</g>
	<path class="st8" d="M147.5,257.9H124c-4,0-7.3-3.3-7.3-7.3v-23.5c0-4,3.3-7.3,7.3-7.3h23.5c4,0,7.3,3.3,7.3,7.3v23.5
		C154.8,254.6,151.5,257.9,147.5,257.9z"/>
	<path class="st8" d="M209.6,257.9h-23.5c-4,0-7.3-3.3-7.3-7.3v-23.5c0-4,3.3-7.3,7.3-7.3h23.5c4,0,7.3,3.3,7.3,7.3v23.5
		C216.9,254.6,213.6,257.9,209.6,257.9z"/>
	<path class="st8" d="M277.2,257.9h-23.5c-4,0-7.3-3.3-7.3-7.3v-23.5c0-4,3.3-7.3,7.3-7.3h23.5c4,0,7.3,3.3,7.3,7.3v23.5
		C284.5,254.6,281.2,257.9,277.2,257.9z"/>
	<g id="XMLID_1708_" class="st1">
		<g id="XMLID_1710_">
			<rect id="XMLID_1712_" x="127.1" y="289.7" class="st3" width="3.9" height="12.7"/>
			<path id="XMLID_1711_" class="st3" d="M129.1,288c1.3,0,2.3-1.1,2.3-2.3c0-1.3-1-2.3-2.3-2.3c-1.3,0-2.3,1.1-2.3,2.3
				C126.7,287,127.8,288,129.1,288z"/>
		</g>
		<path id="XMLID_1709_" class="st3" d="M137.3,295.8c0-1.8,0.8-2.9,2.4-2.9c1.4,0,2.1,1,2.1,2.9c0,1.8,0,6.7,0,6.7h3.9
			c0,0,0-4.6,0-8.1c0-3.4-1.9-5.1-4.6-5.1c-2.7,0-3.8,2.1-3.8,2.1v-1.7h-3.8v12.7h3.8C137.3,302.4,137.3,297.7,137.3,295.8z"/>
	</g>
	<g id="XMLID_129_" class="st1">
		<path id="XMLID_152_" class="st4" d="M208.3,238.3c-0.1-5.5-4.7-9.9-10.2-9.9c-5.5,0-10,4.3-10.2,9.7c0,0.1,0,0.3,0,0.4
			c0,1.9,0.5,3.7,1.5,5.3l-1.8,5.5l5.7-1.8c1.5,0.8,3.2,1.3,5,1.3c5.7,0,10.2-4.6,10.2-10.2C208.3,238.5,208.3,238.4,208.3,238.3z
			 M198,247.2c-1.8,0-3.4-0.5-4.7-1.4l-3.3,1.1l1.1-3.2c-1-1.4-1.6-3.1-1.6-5c0-0.3,0-0.6,0-0.8c0.4-4.3,4.1-7.7,8.6-7.7
			c4.5,0,8.2,3.5,8.6,7.9c0,0.2,0,0.4,0,0.7C206.6,243.3,202.8,247.2,198,247.2z"/>
		<path id="XMLID_130_" class="st4" d="M202.7,240.7c-0.3-0.1-1.5-0.7-1.7-0.8c-0.2-0.1-0.4-0.1-0.6,0.1c-0.2,0.2-0.7,0.8-0.8,1
			c-0.1,0.2-0.3,0.2-0.5,0.1c-0.2-0.1-1.1-0.4-2-1.2c-0.7-0.7-1.3-1.5-1.4-1.7c-0.1-0.2,0-0.4,0.1-0.5c0.1-0.1,0.2-0.3,0.4-0.4
			c0,0,0.1-0.1,0.1-0.1c0.1-0.1,0.1-0.2,0.2-0.3c0.1-0.2,0-0.3,0-0.4c-0.1-0.1-0.6-1.4-0.8-1.9c-0.2-0.5-0.4-0.4-0.6-0.4
			c-0.1,0-0.3,0-0.5,0c-0.2,0-0.4,0.1-0.7,0.3c-0.2,0.2-0.9,0.9-0.9,2.1c0,0.3,0.1,0.6,0.1,0.8c0.3,0.9,0.8,1.6,0.9,1.7
			c0.1,0.2,1.7,2.8,4.3,3.8c2.6,1,2.6,0.7,3,0.6c0.5,0,1.5-0.6,1.7-1.2c0.2-0.6,0.2-1.1,0.1-1.2C203.1,240.8,203,240.8,202.7,240.7z
			"/>
	</g>
	<g class="st1">
		<path class="st3" d="M267.7,247.3l0,2l-0.8,0c-0.2,0-0.4,0-0.5,0c-3.1,0-5.7-1-7.7-2.9c-2.1-1.9-3.1-4.4-3.1-7.5
			c0-3.4,1.1-6.1,3.4-8c1.9-1.6,4.1-2.5,6.8-2.5c2.8,0,5.2,0.9,7,2.8c1.7,1.7,2.6,4,2.6,6.6c0,1.6-0.4,3-1.1,4.2c-0.8,1.3-2,2-3.6,2
			c-0.7,0-1.4-0.2-1.9-0.6c-0.5-0.4-0.9-0.8-1-1.4c-0.7,1.3-1.8,2-3.3,2c-1.2,0-2.2-0.4-2.9-1.3c-0.8-0.9-1.2-2-1.2-3.3
			c0-1.8,0.5-3.2,1.6-4.2c0.9-0.8,1.9-1.2,3-1.2c0.9,0,1.7,0.2,2.3,0.7l0.3-0.8h2v6.1c0,1.4,0.4,2.1,1.3,2.1c1.4,0,2.1-1.4,2.1-4.2
			c0-2.5-0.9-4.5-2.7-5.9c-1.3-1-2.9-1.5-4.6-1.5c-2.4,0-4.3,0.8-5.8,2.5c-1.4,1.5-2,3.5-2,5.9c0,3.1,1,5.4,3,6.9
			c1.5,1.1,3.2,1.6,5.2,1.6c0.2,0,0.4,0,0.6,0L267.7,247.3z M267.2,236.5c-0.5-0.4-1.1-0.6-1.9-0.6c-1.5,0-2.2,1-2.2,3.1
			c0,2,0.7,3,2.1,3c1.4,0,2.1-1,2.1-2.9V236.5z"/>
	</g>
	<g id="XMLID_116_" class="st1">
		<g id="XMLID_118_">
			<rect id="XMLID_124_" x="127.1" y="235.7" class="st3" width="3.9" height="12.7"/>
			<path id="XMLID_123_" class="st3" d="M129.1,234c1.3,0,2.3-1.1,2.3-2.3c0-1.3-1-2.3-2.3-2.3c-1.3,0-2.3,1.1-2.3,2.3
				C126.7,233,127.8,234,129.1,234z"/>
		</g>
		<path id="XMLID_117_" class="st3" d="M137.3,241.7c0-1.8,0.8-2.9,2.4-2.9c1.4,0,2.1,1,2.1,2.9c0,1.8,0,6.7,0,6.7h3.9
			c0,0,0-4.6,0-8.1c0-3.4-1.9-5.1-4.6-5.1c-2.7,0-3.8,2.1-3.8,2.1v-1.7h-3.8v12.7h3.8C137.3,248.4,137.3,243.7,137.3,241.7z"/>
	</g>
</g>
<g id="Layer_3">
	<g class="st0">
		<path class="st8" d="M38.7,21.1c-8.7,0-15.9,6.6-16.7,15c-0.1,0.5-0.1,1.1-0.1,1.6c0,3.6,1.2,7,3.2,9.8L23,53.7l6.4-2.1
			c2.7,1.7,5.8,2.8,9.2,2.8c9.2,0,16.8-7.5,16.8-16.6c0-0.4,0-0.9-0.1-1.3C54.7,27.9,47.5,21.1,38.7,21.1z M48.4,44.6
			c-0.4,1.1-2.4,2.2-3.3,2.3c-0.9,0.1-0.9,0.7-5.9-1.2c-5-2-8.1-7-8.3-7.3c-0.2-0.2-1.3-1.7-1.7-3.4c-0.1-0.5-0.3-1.1-0.3-1.7
			c0-2.4,1.3-3.6,1.7-4.1c0.4-0.5,1-0.6,1.3-0.6c0.3,0,0.7,0,0.9,0c0.3,0,0.7-0.2,1.1,0.8c0.4,1,1.4,3.4,1.5,3.6
			c0.1,0.2,0.2,0.5,0,0.8c-0.1,0.2-0.2,0.4-0.3,0.6c-0.1,0.1-0.1,0.1-0.2,0.2c-0.3,0.3-0.5,0.6-0.7,0.8c-0.2,0.2-0.5,0.5-0.2,1
			c0.3,0.5,1.3,2.1,2.7,3.4c1.9,1.7,3.4,2.2,3.9,2.4c0.5,0.2,0.8,0.2,1.1-0.1c0.3-0.3,1.2-1.4,1.5-1.9c0.3-0.5,0.7-0.4,1.1-0.2
			c0.4,0.2,2.8,1.3,3.3,1.6c0.5,0.2,0.8,0.4,0.9,0.6C48.9,42.5,48.9,43.5,48.4,44.6z"/>
		<path class="st8" d="M61.1,1.3H15.5C7.6,1.3,1.3,7.6,1.3,15.5v45.6c0,7.8,6.4,14.2,14.2,14.2h45.6c7.8,0,14.2-6.4,14.2-14.2V15.5
			C75.3,7.6,69,1.3,61.1,1.3z M38.7,57.6c-3.5,0-6.8-0.9-9.6-2.5l-11,3.5L21.6,48c-1.8-3-2.9-6.5-2.9-10.2c0-0.3,0-0.6,0-0.9
			C19.2,26.4,28,18,38.7,18c10.8,0,19.7,8.6,19.9,19.3c0,0.2,0,0.3,0,0.5C58.6,48.7,49.7,57.6,38.7,57.6z"/>
	</g>
	<g>
		<path class="st2" d="M33.7,38.6c0,3.9,1.3,5.8,4,5.8c2.7,0,4-1.9,4-5.7v-4.9c-0.9-0.8-2.2-1.2-3.8-1.2
			C35.1,32.5,33.7,34.6,33.7,38.6z"/>
		<path class="st2" d="M61.1,1.3H15.5C7.6,1.3,1.3,7.6,1.3,15.5v45.6c0,7.8,6.4,14.2,14.2,14.2h45.6c7.8,0,14.2-6.4,14.2-14.2V15.5
			C75.3,7.6,69,1.3,61.1,1.3z M55.5,44.5c-1.7,2.6-4,3.9-6.9,3.9c-1.4,0-2.7-0.4-3.7-1.1c-1-0.7-1.7-1.6-1.9-2.7
			c-1.3,2.5-3.5,3.8-6.4,3.8c-2.3,0-4.2-0.9-5.7-2.6c-1.5-1.7-2.3-3.9-2.3-6.5c0-3.5,1-6.2,3.1-8.2c1.7-1.6,3.7-2.4,5.9-2.4
			c1.7,0,3.2,0.5,4.5,1.4l0.6-1.5h3.8v11.8c0,2.7,0.8,4,2.5,4c2.7,0,4-2.7,4-8.2c0-5-1.8-8.8-5.3-11.4c-2.6-2-5.6-3-9-3
			c-4.7,0-8.4,1.6-11.3,4.8c-2.6,2.9-3.9,6.8-3.9,11.5c0,6,2,10.5,5.9,13.5c2.8,2.1,6.2,3.2,10.1,3.2c0.4,0,0.8,0,1.2-0.1l1.7-0.1
			l0.1,3.8l-1.5,0.1c-0.4,0-0.7,0-1,0c-6,0-11-1.9-15.1-5.6c-4-3.7-6-8.6-6-14.6c0-6.6,2.2-11.8,6.6-15.6c3.6-3.2,8-4.8,13.3-4.8
			c5.5,0,10,1.8,13.7,5.5c3.4,3.4,5.1,7.7,5.1,12.9C57.6,39.5,56.9,42.2,55.5,44.5z"/>
	</g>
	<path class="st9" d="M61.1,1.3H15.5C7.6,1.3,1.3,7.6,1.3,15.5v45.6c0,7.8,6.4,14.2,14.2,14.2h45.6c7.8,0,14.2-6.4,14.2-14.2V15.5
		C75.3,7.6,69,1.3,61.1,1.3z M29.2,56.9h-7.7V32.1h7.7V56.9z M25.3,28.9c-2.5,0-4.5-2-4.5-4.6c0-2.5,2-4.6,4.5-4.6
		c2.5,0,4.5,2,4.5,4.6C29.8,26.8,27.8,28.9,25.3,28.9z M57.9,56.9h-7.6c0,0,0-9.4,0-13c0-3.6-1.4-5.6-4.2-5.6
		c-3.1,0-4.7,2.1-4.7,5.6c0,3.8,0,13,0,13h-7.3V32.1h7.3v3.3c0,0,2.2-4.1,7.5-4.1c5.2,0,9,3.2,9,9.8C57.9,47.8,57.9,56.9,57.9,56.9z
		"/>
</g>
</svg>
