<?xml version="1.0" encoding="utf-8"?>
<!-- Generator: Adobe Illustrator 24.3.0, SVG Export Plug-In . SVG Version: 6.00 Build 0)  -->
<svg version="1.1" id="Layer_1" xmlns="http://www.w3.org/2000/svg" xmlns:xlink="http://www.w3.org/1999/xlink" x="0px" y="0px"
	 viewBox="0 0 83.7 85.9" style="enable-background:new 0 0 83.7 85.9;" xml:space="preserve">
<style type="text/css">
	.st0{fill:#F16850;}
	.st1{fill:#B17DB2;}
	.st2{fill:#8C588D;}
	.st3{fill:#754176;}
	.st4{fill:#CF9BD0;}
	.st5{fill:#CA96CB;}
	.st6{fill:#9E6A9F;}
	.st7{fill:#9A669B;}
	.st8{fill:#79457A;}
	.st9{fill:#723E73;}
	.st10{fill:#602C61;}
	.st11{fill:#663267;}
	.st12{fill:#643065;}
	.st13{fill:#855186;}
	.st14{fill:#986499;}
	.st15{fill:#B07CB1;}
	.st16{fill:#B985BA;}
</style>
<polygon class="st0" points="83.7,56.3 65.8,59.9 67.6,77.8 50.9,70.6 41.8,85.9 32.6,70.6 15.8,77.8 17.6,59.9 0,56.3 12,43 
	0,29.6 17.6,26 15.8,8.1 32.6,15.4 41.8,0 50.9,15.4 67.6,8.1 65.8,26 83.7,29.6 71.5,43 "/>
<polygon class="st1" points="41.8,26.9 32.6,15.4 15.8,8.1 25.8,21.3 "/>
<polygon class="st2" points="17.6,26 0,29.6 12,43 26.2,37.8 "/>
<polygon class="st3" points="25.8,21.3 15.8,8.1 17.6,26 26.2,37.8 "/>
<polygon class="st4" points="50.9,15.4 41.8,0 32.6,15.4 41.8,26.9 "/>
<polygon class="st5" points="71.5,43 83.7,29.6 65.8,26 57.2,37.8 "/>
<polygon class="st1" points="57.2,37.8 65.8,26 67.6,8.1 57.7,21.3 "/>
<polygon class="st6" points="57.7,21.3 67.6,8.1 50.9,15.4 41.8,26.9 "/>
<polygon class="st7" points="67.6,50.9 83.7,56.3 71.5,43 57.2,37.8 "/>
<polygon class="st8" points="26.2,37.8 12,43 0,56.3 16.1,50.9 "/>
<polygon class="st9" points="41.8,69.2 41.8,85.9 50.9,70.6 51.3,55.6 "/>
<polygon class="st10" points="67.6,50.9 51.3,55.6 65.8,59.9 83.7,56.3 "/>
<polygon class="st8" points="50.9,70.6 67.6,77.8 65.8,59.9 51.3,55.6 "/>
<polygon class="st11" points="16.1,50.9 0,56.3 17.6,59.9 32.1,55.6 "/>
<polygon class="st12" points="32.1,55.6 32.6,70.6 41.8,85.9 41.8,69.2 "/>
<polygon class="st9" points="17.6,59.9 15.8,77.8 32.6,70.6 32.1,55.6 "/>
<polygon class="st13" points="57.2,37.8 57.7,21.3 41.8,26.9 41.8,43 "/>
<polygon class="st14" points="41.8,26.9 25.8,21.3 26.2,37.8 41.8,43 "/>
<polygon class="st4" points="32.1,55.6 41.8,69.2 51.3,55.6 41.8,43 "/>
<polygon class="st15" points="41.8,43 51.3,55.6 67.6,50.9 57.2,37.8 "/>
<polygon class="st16" points="26.2,37.8 16.1,50.9 32.1,55.6 41.8,43 "/>
</svg>
