<?xml version="1.0" encoding="utf-8"?>
<!-- Generator: Adobe Illustrator 24.3.0, SVG Export Plug-In . SVG Version: 6.00 Build 0)  -->
<svg version="1.1" id="Layer_1" xmlns="http://www.w3.org/2000/svg" xmlns:xlink="http://www.w3.org/1999/xlink" x="0px" y="0px"
	 viewBox="0 0 37 38" style="enable-background:new 0 0 37 38;" xml:space="preserve">
<style type="text/css">
	.st0{fill:#F16850;}
	.st1{fill:#B17DB2;}
	.st2{fill:#8C588D;}
	.st3{fill:#754176;}
	.st4{fill:#CF9BD0;}
	.st5{fill:#CA96CB;}
	.st6{fill:#9E6A9F;}
	.st7{fill:#9A669B;}
	.st8{fill:#79457A;}
	.st9{fill:#723E73;}
	.st10{fill:#602C61;}
	.st11{fill:#663267;}
	.st12{fill:#643065;}
	.st13{fill:#855186;}
	.st14{fill:#986499;}
	.st15{fill:#B07CB1;}
	.st16{fill:#B985BA;}
</style>
<polygon class="st0" points="37,24.9 29.1,26.5 29.9,34.4 22.5,31.2 18.5,38 14.4,31.2 7,34.4 7.8,26.5 0,24.9 5.3,19 0,13.1 
	7.8,11.5 7,3.6 14.4,6.8 18.5,0 22.5,6.8 29.9,3.6 29.1,11.5 37,13.1 31.6,19 "/>
<polygon class="st1" points="18.5,11.9 14.4,6.8 7,3.6 11.4,9.4 "/>
<polygon class="st2" points="7.8,11.5 0,13.1 5.3,19 11.6,16.7 "/>
<polygon class="st3" points="11.4,9.4 7,3.6 7.8,11.5 11.6,16.7 "/>
<polygon class="st4" points="22.5,6.8 18.5,0 14.4,6.8 18.5,11.9 "/>
<polygon class="st5" points="31.6,19 37,13.1 29.1,11.5 25.3,16.7 "/>
<polygon class="st1" points="25.3,16.7 29.1,11.5 29.9,3.6 25.5,9.4 "/>
<polygon class="st6" points="25.5,9.4 29.9,3.6 22.5,6.8 18.5,11.9 "/>
<polygon class="st7" points="29.9,22.5 37,24.9 31.6,19 25.3,16.7 "/>
<polygon class="st8" points="11.6,16.7 5.3,19 0,24.9 7.1,22.5 "/>
<polygon class="st9" points="18.5,30.6 18.5,38 22.5,31.2 22.7,24.6 "/>
<polygon class="st10" points="29.9,22.5 22.7,24.6 29.1,26.5 37,24.9 "/>
<polygon class="st8" points="22.5,31.2 29.9,34.4 29.1,26.5 22.7,24.6 "/>
<polygon class="st11" points="7.1,22.5 0,24.9 7.8,26.5 14.2,24.6 "/>
<polygon class="st12" points="14.2,24.6 14.4,31.2 18.5,38 18.5,30.6 "/>
<polygon class="st9" points="7.8,26.5 7,34.4 14.4,31.2 14.2,24.6 "/>
<polygon class="st13" points="25.3,16.7 25.5,9.4 18.5,11.9 18.5,19 "/>
<polygon class="st14" points="18.5,11.9 11.4,9.4 11.6,16.7 18.5,19 "/>
<polygon class="st4" points="14.2,24.6 18.5,30.6 22.7,24.6 18.5,19 "/>
<polygon class="st15" points="18.5,19 22.7,24.6 29.9,22.5 25.3,16.7 "/>
<polygon class="st16" points="11.6,16.7 7.1,22.5 14.2,24.6 18.5,19 "/>
</svg>
